<?xml version="1.0" encoding="utf-8"?>
<!-- Generator: Adobe Illustrator 16.0.0, SVG Export Plug-In . SVG Version: 6.00 Build 0)  -->
<!DOCTYPE svg PUBLIC "-//W3C//DTD SVG 1.1//EN" "http://www.w3.org/Graphics/SVG/1.1/DTD/svg11.dtd">
<svg version="1.1" xmlns="http://www.w3.org/2000/svg" xmlns:xlink="http://www.w3.org/1999/xlink" x="0px" y="0px"
	 width="52.515px" height="44.84px" viewBox="0 0 52.515 44.84" enable-background="new 0 0 52.515 44.84" xml:space="preserve">
<g id="Layer_2">
</g>
<g id="Layer_6">
</g>
<g id="Layer_15">
</g>
<g id="Layer_4">
</g>
<g id="Layer_12">
</g>
<g id="Layer_13">
</g>
<g id="Layer_7">
</g>
<g id="Layer_3">
	<g>
		<g>
			<g>
				<path fill="#ACD7EC" d="M47.387,25.828L31.37,28.503l3.685,3.114l8.784-3.779l-7.424,4.929l0.002,0.002l-0.003-0.002
					l-1.326,3.667l3.393-1.923l2.616,2.212L47.387,25.828z M47.387,25.828"/>
			</g>
		</g>
		<g>
			<path fill="#ACD7EC" d="M8.738,38.879c-0.118-0.26-0.426-0.374-0.686-0.256l-1.74,0.79c-0.26,0.118-0.373,0.424-0.255,0.684
				c0.116,0.26,0.423,0.376,0.683,0.257l1.741-0.792C8.742,39.443,8.855,39.138,8.738,38.879L8.738,38.879z"/>
			<path fill="#ACD7EC" d="M6.59,34.154c-0.118-0.259-0.424-0.372-0.684-0.254l-1.741,0.791c-0.259,0.118-0.375,0.424-0.257,0.683
				c0.119,0.26,0.424,0.376,0.685,0.258l1.741-0.792C6.592,34.722,6.708,34.415,6.59,34.154L6.59,34.154z"/>
			<path fill="#ACD7EC" d="M8.451,36.16c-0.118-0.261-0.425-0.375-0.685-0.257L3.354,37.91c-0.26,0.117-0.374,0.424-0.256,0.684
				c0.119,0.259,0.424,0.373,0.684,0.256l4.413-2.006C8.454,36.726,8.568,36.42,8.451,36.16L8.451,36.16z"/>
			<path fill="#ACD7EC" d="M21.812,30.59l-9.834,12.301c-0.277,0.347-0.838,0.202-0.912-0.237l-1.095-6.451
				c-0.033-0.204,0.056-0.408,0.229-0.521l1.663-1.075L9.96,35.155c-0.198,0.058-0.411-0.01-0.542-0.17L5.275,29.92
				c-0.28-0.343-0.024-0.861,0.421-0.842l15.735,0.674C21.852,29.77,22.076,30.261,21.812,30.59L21.812,30.59z"/>
		</g>
		<path fill="#DCEFF9" d="M11.52,5.146h4.004c0,0-0.131-0.691-0.374-0.805c-0.243-0.11-0.562-0.094-0.562-0.094s0-0.168-0.318-0.225
			c-0.318-0.055-0.318-0.674-0.747-0.748c-0.433-0.074-0.936,0.244-1.104,0.45c-0.169,0.204-0.263,0.243-0.263,0.243
			s-0.468-0.05-0.712,0.237C11.201,4.492,11.238,5.146,11.52,5.146z"/>
		<path fill="#DCEFF9" d="M23.722,10.635h4.005c0,0-0.131-0.691-0.375-0.806c-0.243-0.111-0.561-0.094-0.561-0.094
			s0-0.167-0.318-0.225c-0.318-0.057-0.318-0.673-0.748-0.748c-0.431-0.075-0.936,0.243-1.104,0.449s-0.262,0.242-0.262,0.242
			s-0.467-0.047-0.711,0.238C23.403,9.979,23.441,10.635,23.722,10.635z"/>
		<path fill="#DCEFF9" d="M46.481,7.298h4.004c0,0-0.132-0.694-0.375-0.806c-0.243-0.112-0.562-0.094-0.562-0.094
			s0-0.168-0.318-0.225c-0.317-0.056-0.317-0.673-0.748-0.748c-0.431-0.076-0.936,0.242-1.105,0.449
			c-0.167,0.205-0.26,0.243-0.26,0.243s-0.469-0.048-0.712,0.237C46.163,6.642,46.2,7.298,46.481,7.298z"/>
		<path fill="#DCEFF9" d="M2.757,24.872h4.005c0,0-0.131-0.691-0.374-0.805c-0.244-0.112-0.563-0.094-0.563-0.094
			s0-0.168-0.318-0.225c-0.317-0.057-0.317-0.673-0.748-0.748c-0.43-0.074-0.936,0.243-1.103,0.448
			c-0.17,0.207-0.263,0.243-0.263,0.243s-0.468-0.048-0.711,0.238C2.438,24.218,2.477,24.872,2.757,24.872z"/>
		<path fill="#DCEFF9" d="M28.708,37.954h4.004c0,0-0.131-0.692-0.373-0.804c-0.243-0.112-0.562-0.095-0.562-0.095
			s0-0.168-0.318-0.224c-0.318-0.057-0.318-0.675-0.748-0.75c-0.431-0.073-0.937,0.245-1.104,0.449
			c-0.168,0.206-0.262,0.244-0.262,0.244s-0.469-0.048-0.711,0.237C28.39,37.299,28.427,37.954,28.708,37.954z"/>
		<path fill="#DCEFF9" d="M21.603,26.239h4.004c0,0-0.132-0.69-0.374-0.804c-0.244-0.112-0.563-0.094-0.563-0.094
			s0-0.168-0.317-0.224c-0.318-0.057-0.318-0.673-0.749-0.749c-0.43-0.075-0.935,0.243-1.104,0.448
			c-0.168,0.208-0.263,0.244-0.263,0.244s-0.468-0.048-0.71,0.237C21.283,25.586,21.32,26.239,21.603,26.239z"/>
		<path fill="#DCEFF9" d="M33.485,21.316h4.005c0,0-0.131-0.692-0.375-0.804c-0.242-0.113-0.561-0.095-0.561-0.095
			s0-0.168-0.318-0.224c-0.318-0.057-0.318-0.674-0.748-0.748c-0.431-0.074-0.936,0.242-1.104,0.449
			c-0.169,0.206-0.263,0.242-0.263,0.242s-0.468-0.048-0.71,0.238C33.167,20.662,33.204,21.316,33.485,21.316z"/>
		<g>
			<g>
				<path fill="#D24D27" d="M14.649,15.78l1.272-1.078c0,0-1.447-2.567-2.475-3.325c-1.08-0.799-1.091-0.882-1.486-0.919
					c-0.391-0.04-1.194-0.116-0.99,0.047c0.726,0.587,1.779,2.633,1.779,2.633L14.649,15.78z"/>
				<path fill="#F9CC9B" d="M10.118,34.663l0.868-0.093l0.199,0.487c0,0-0.332,0.248-0.532,0.278
					c-0.203,0.033-0.535-0.149-0.535-0.149l-0.287-0.501L10.118,34.663z"/>
				<path fill="#3C2415" d="M9.649,35.144v0.384c0,0,0.341,0.139,0.385,0.268c0.041,0.129,0.032,0.588,0.181,0.76
					c0.149,0.17,1.324,0.34,1.698,0.34c0.373,0,0.96-0.096,0.972-0.299c0.011-0.202-0.032-0.385-0.086-0.449
					c-0.053-0.063-0.285-0.217-0.285-0.217l-1.246-0.872c0,0-0.272,0.301-0.669,0.277c-0.396-0.021-0.82-0.181-0.82-0.181
					L9.649,35.144z"/>
				<path fill="#F9CC9B" d="M17.907,31.543l0.046,0.732c0,0,1.24-0.518,1.293-0.527c0.051-0.011,0.588-0.44,0.588-0.44
					s-0.641,0-0.732,0c-0.092-0.001-0.318-0.032-0.318-0.032L17.907,31.543z"/>
				<path fill="#603913" d="M17.846,32.014h0.199c0,0,0.446-0.038,0.661-0.115c0.217-0.077,0.672-0.3,0.817-0.424
					c0.145-0.122-0.079-0.114,0.521-0.199c0.6-0.084,1.261-0.299,1.507-0.354c0.246-0.053,0.462-0.008,0.577,0.078
					c0.116,0.083,0.291,0.293,0.291,0.293s-0.792,0.58-1.453,0.788c-0.659,0.21-0.724,0.132-1.131,0.146
					c-0.406,0.011-0.605-0.119-0.605-0.119s0.008,0.248-0.308,0.43c-0.316,0.185-0.472,0.148-0.578,0.152
					c-0.107,0.002-0.248,0.001-0.248,0.001L17.846,32.014z"/>
				<path fill="#3C2415" d="M17.846,32.014c0,0-0.124,0.262,0,0.508c0.122,0.247,0.122,0.247,0.122,0.247v0.368l1.216-0.385
					l0.154-0.384l0.584,0.208c0,0,1.769-0.484,2.092-0.64c0.323-0.153,0.507-0.369,0.507-0.369l-0.076-0.292
					c0,0-1.216,0.816-1.894,0.93c-0.675,0.116-1.32-0.098-1.32-0.098s-0.108,0.322-0.355,0.46c-0.245,0.14-0.676,0.124-0.676,0.124
					s-0.139-0.139-0.201-0.37C17.937,32.092,17.846,32.014,17.846,32.014z"/>
				<path fill="#603913" d="M9.884,34.803c0,0,0.386,0.396,0.471,0.427c0.084,0.032,0.533,0.021,0.63-0.107
					c0.096-0.128,0.181-0.234,0.181-0.234s1.249,0.844,1.399,1.11c0.149,0.267-0.075,0.373-0.075,0.373s-0.576,0.086-1.303,0
					c-0.726-0.084-0.832-0.073-0.896-0.267c-0.063-0.191,0.064-0.389-0.107-0.499c-0.17-0.109-0.427-0.483-0.427-0.483L9.884,34.803
					z"/>
				<path fill="#10354D" d="M9.313,19.61c0,0-0.595,1.887-0.112,2.77c0.235,0.433,0.578,1.074,0.578,1.074l0.411,5.361
					c0,0-0.123,0.093-0.145,0.207c-0.021,0.111,0.093,0.174,0.093,0.174s-0.195,0.05-0.163,0.144c0.03,0.092,0.02,0.215,0.02,0.215
					s-0.245,1.036-0.329,1.764c-0.081,0.728-0.204,3.097-0.204,3.097l-0.093,0.451c0,0,1.473-0.181,1.597-0.181
					c0.122,0,0.286-0.145,0.286-0.145l1.107-5.045c0,0,0.205-0.974,0.215-1.343c0.012-0.369,0.278-4.507,0.278-4.507
					s0.272-0.589,0.453-0.621c0.183-0.029,0.335,0.575,0.725,0.934c0.391,0.359,1.374,1.386,1.969,1.682
					c0.596,0.298,1.507,0.892,1.507,0.892s-0.122,0.134,0,0.124c0.124-0.01-0.039,0.113,0,0.123
					c0.041,0.011,0.048,0.163,0.048,0.163l0.046,3.129l0.122,1.252c0,0,0,0.275,0,0.357c0,0.081,0.902-0.215,1.058-0.215
					c0.152,0,0.461-0.215,0.461-0.215l-0.071-0.154c0,0-0.012,0.01,0.071-0.175c0.081-0.184,0.185-1.794,0.185-1.794l0.328-3.302
					c0,0,0.021-0.082-0.154-0.268c-0.174-0.184-2.472-2.151-2.472-2.151s-1.425-1.688-2.029-2.673
					c-0.129-0.21-0.265-1.15-0.265-1.15s-1.889,0.797-3.141,0.767c-1.251-0.031-2.379-0.792-2.379-0.792V19.61z"/>
				<path fill="#F15C38" d="M6.529,14.158c0,0-0.015-0.935,0.447-1.458c0.46-0.522,0.778-0.748,0.778-0.748l0.277-0.574
					c0,0,0.391-0.062,0.523-0.133c0.133-0.072,1.343-1.017,1.343-1.017h0.123l0.328,0.217c0,0,1.239-0.041,1.445-0.028
					c0.887,0.059,1.774,2.633,1.774,2.633s0.432,2.614,0.636,3.342c0.205,0.729,0.297,2.103,0.482,2.784
					c0.042,0.154,0.245,0.591,0.245,0.591s-0.742,0.246-1.178,0.368c-1.319,0.367-2.343,0.409-2.789,0.241
					c-0.447-0.169-1.457-0.655-1.457-0.655s-0.078-0.635-0.165-1.012c-0.085-0.376-0.312-0.778-0.312-0.778l-0.317-1.789
					c0,0-0.119-0.827-0.171-1.176C8.493,14.617,6.386,14.686,6.529,14.158z"/>
				<path fill="#D24D27" d="M7.448,20.291c0,0,0.494-0.836,1.035-0.989c0.541-0.155,0.938-0.203,0.938-0.203s0.01-0.354-0.036-0.469
					s-0.07-0.17-0.107-0.254c-0.039-0.084-0.1-0.224-0.146-0.239c-0.047-0.014-0.085-0.16-0.101-0.206s-0.07-0.362-0.1-0.532
					c-0.03-0.168-0.246-1.299-0.239-1.467c0.008-0.17-0.093-1.84-0.13-2.023c-0.039-0.185-0.225-0.508-0.286-0.638
					c-0.061-0.131-0.261-0.316-0.337-0.316c-0.077,0-0.608-0.007-0.846,0.114c-0.239,0.125-0.408,0.485-0.47,0.709
					C6.563,14,6.464,14.43,6.432,14.631c-0.03,0.199,0.024,1.223,0.101,1.615c0.078,0.392,0.139,1.016,0.139,1.016
					s0.153,1.354,0.262,1.637c0.107,0.286,0.27,1.007,0.27,1.007l0.146,0.471L7.448,20.291z"/>
				<path fill="#D24D27" d="M7.755,11.952l0.985,1.072l0.656-0.574c0,0-0.703-0.448-0.819-0.528c-0.12-0.083-0.318-0.267-0.36-0.329
					c-0.041-0.061-0.185-0.215-0.185-0.215L7.755,11.952z"/>
				<path fill="#D24D27" d="M9.944,10.229c0,0,0.236,0.396,0.261,0.652c0.026,0.257,0.155,0.793,0.155,0.793
					s0.062-0.225,0.117-0.266c0.057-0.041,0.271-0.03,0.303-0.03s-0.01-0.323-0.194-0.589c-0.185-0.268-0.389-0.453-0.502-0.519
					C9.971,10.204,9.944,10.229,9.944,10.229z"/>
				<path fill="#FEE000" d="M9.241,12.351c0,0,0.319-0.004,0.643-0.229c0.321-0.225,0.477-0.447,0.477-0.447l0.312,0.527
					l0.093,0.992l-1.342-0.636L9.396,12.45L9.241,12.351z"/>
				<path fill="#F3C295" d="M8.228,11.655l0.183-0.288c0,0,0.576-0.082,0.801-0.268c0.226-0.184,0.492-0.479,0.492-0.479
					s0.159,0.015,0.26,0c0.101-0.017,0.161-0.042,0.161-0.042s0.18,0.748,0.192,0.926c0.013,0.176,0.02,0.219,0.02,0.219
					s-0.429,0.414-0.602,0.483c-0.172,0.069-0.385,0.124-0.485,0.122C9.149,12.325,8.228,11.655,8.228,11.655z"/>
				<path fill="#F9CC9B" d="M8.778,11.289c-0.175,0.059-0.354,0.143-0.885,0.037c-0.531-0.102-1.054-0.472-1.207-0.595
					c-0.154-0.124-0.154-0.124-0.154-0.124s0.008,0.247-0.093,0.231c-0.1-0.015-0.438,0.14-0.668-0.185
					c-0.23-0.322-0.27-0.631-0.17-0.716c0.1-0.084,0.37,0,0.37,0l0.161,0.078c0,0,0.161,0.023,0.254-0.054
					c0.093-0.076-0.054-0.192-0.115-0.347C6.209,9.464,5.948,8.848,5.91,8.586s0.03-0.484,0.03-0.484S6.34,8.01,6.756,7.818
					c0.415-0.194,0.677-0.355,0.807-0.518c0.131-0.16,0.224-0.452,0.286-0.561c0.061-0.107,0.199-0.231,0.199-0.231
					s0.653,0.385,0.808,0.524c0.152,0.138,0.759,1.102,0.921,1.493c0.161,0.394,0.47,0.74,0.307,1.262
					c-0.164,0.523-0.322,0.77-0.38,0.832C9.646,10.68,9.396,11.087,8.778,11.289z"/>
				<path fill="#F1B279" d="M5.717,10.093c0,0,0.024,0.315,0.139,0.432c0.116,0.114,0.208,0.207,0.323,0.229
					c0.115,0.023,0.197-0.13,0.166-0.176c-0.026-0.046-0.143-0.085-0.143-0.085l0.03-0.068l0.112,0.046c0,0-0.044-0.069-0.112-0.108
					c-0.068-0.038-0.146-0.046-0.146-0.046s0.105-0.101-0.052-0.224C5.878,9.97,5.755,10.032,5.717,10.093z"/>
				<path d="M6.193,10.021c0,0-0.573-0.17-0.827-0.57S4.798,8.816,4.72,8.186C4.644,7.556,4.511,7.141,4.971,6.64
					c0.462-0.498,1.793-1.1,2.4-1.007C7.978,5.725,8.509,6.24,8.624,6.509C8.74,6.779,8.855,7.033,8.855,7.033l0.198,0.184
					c0,0-0.783-0.606-0.945-0.606c-0.161,0-0.245,0.461-0.468,0.676C7.417,7.501,6.886,7.887,6.617,7.979
					C6.349,8.071,5.979,8.163,5.979,8.163S5.878,8.479,6.018,8.831c0.138,0.355,0.514,1.014,0.506,1.143
					C6.515,10.101,6.193,10.021,6.193,10.021z"/>
				<path d="M6.31,7.855c0,0-0.162,0.377,0.085,0.984c0.246,0.608,0.322,0.8,0.477,0.876C7.024,9.793,7.04,9.832,7.04,9.832
					S6.679,9.839,6.501,9.509c-0.176-0.33-0.307-0.814-0.346-1.022C6.117,8.278,6.117,8.278,6.117,8.278s0.102,0.715,0.201,0.992
					c0.1,0.275,0.406,0.607,0.406,0.607s-0.257-0.181-0.36-0.322C6.26,9.413,6.511,9.878,6.511,9.878s0,0.17-0.255-0.162
					c-0.254-0.33-0.7-0.967-0.584-1.383c0.114-0.417,0.283-0.687,0.283-0.687L6.31,7.855z"/>
				<path d="M6.504,7.706c0,0-0.05,0.629,0.113,1.079s0.276,0.593,0.471,0.769C7.284,9.728,7.52,9.869,7.52,9.869
					S7.202,9.82,6.894,9.563c-0.307-0.257-0.51-1.04-0.549-1.374c-0.035-0.333,0-0.482,0-0.482H6.504z"/>
				<path d="M7.74,6.694c0,0,0.638,0.563,0.723,1.012c0.085,0.449,0.085,0.449,0.085,0.449s0.038-0.517-0.039-0.73
					c-0.076-0.216-0.17-0.315-0.17-0.315s0.285,0.418,0.309,0.597C8.67,7.887,8.67,7.887,8.67,7.887s0.139-0.169,0-0.462
					c-0.138-0.293-0.276-0.5-0.276-0.5s0.331,0.354,0.338,0.431c0.009,0.077,0,0.132,0,0.132S8.786,7.243,8.67,7.049
					C8.555,6.854,8.555,6.854,8.555,6.854S8.793,7.055,8.84,7.194c0.047,0.138,0.047,0.138,0.047,0.138s0.092-0.047,0-0.242
					C8.793,6.895,8.418,6.563,8.418,6.563L8.186,6.509l-0.276-0.13L7.74,6.694z"/>
			</g>
			<g>
				<path fill="#FDBB21" d="M9.831,13.589v7.878h11.89V14.67c0,0-0.493-0.124-0.693-0.431c-0.2-0.309-0.2-0.708-0.2-0.708H9.904
					l-0.027,0.043L9.831,13.589z"/>
				<polygon fill="#ECA923" points="9.877,13.574 15.855,17.874 20.959,14.114 20.985,14.165 15.776,18.192 9.836,13.587 				"/>
				<polygon fill="#EEAF2C" points="9.958,21.382 15.164,17.718 15.213,17.757 10.108,21.382 21.541,21.401 16.391,17.718 
					16.424,17.691 21.721,21.377 21.721,21.467 21.648,21.467 21.648,21.523 9.831,21.523 9.836,13.587 9.943,13.671 				"/>
				<path fill="#FFC53D" d="M9.877,13.574l5.979,4.3l5.104-3.76c0,0-0.077-0.134-0.104-0.329c-0.024-0.192-0.028-0.254-0.028-0.254
					H9.904L9.877,13.574z"/>
				<circle fill="#E71E25" cx="22.21" cy="13.274" r="1.296"/>
				<g>
					<path fill="#FFFFFF" d="M22.133,12.906h-0.004l-0.244,0.117l-0.051-0.227l0.342-0.157h0.248v1.287h-0.291V12.906z"/>
				</g>
			</g>
			<g>
				<path fill="#F9CC9B" d="M7.529,20.209c0,0,0.76,0.261,1.313,0.313c0.552,0.051,2.41,0.306,2.41,0.306l0.385,0.068
					c0,0,0.176,0.607,0.279,0.772c0.103,0.163,0.209,0.277,0.441,0.362c0.232,0.086,0.564,0.172,0.733,0.176
					c0.171,0.005,0.153-0.013,0.224-0.04c0.07-0.026,0.106-0.13,0.106-0.13s0.055-0.053,0.089-0.109
					c0.035-0.058,0.055-0.122,0.055-0.122s0.027-0.026,0.055-0.104c0.028-0.078,0.048-0.156,0.022-0.174
					c-0.023-0.018-0.11,0.021-0.261,0.021c-0.149-0.001-0.309-0.018-0.37-0.076c-0.063-0.06-0.184-0.292-0.201-0.365
					s-0.022-0.086-0.022-0.086s0.235,0.11,0.381,0.145c0.145,0.033,0.307,0.001,0.402-0.034c0.097-0.033,0.172-0.092,0.149-0.154
					c-0.024-0.064-0.244-0.118-0.244-0.118s-0.172-0.041-0.265-0.102c-0.095-0.061-0.299-0.293-0.462-0.357
					c-0.164-0.063-0.442-0.17-0.566-0.148c-0.122,0.022-0.293,0.073-0.293,0.073l-1.221-0.659l-0.966-0.524l-0.925-0.406
					c0,0-0.745,0.307-1.003,0.737c-0.258,0.432-0.302,0.676-0.302,0.676L7.529,20.209z"/>
				<path fill="#F1B279" d="M12.858,21.91c0,0,0.223,0.139,0.317,0.176c0.095,0.038,0.222-0.002,0.222-0.002l0.023-0.048
					c0,0-0.074-0.024-0.152-0.028c-0.08-0.005-0.131-0.019-0.224-0.053C12.955,21.92,12.904,21.887,12.858,21.91z"/>
				<path fill="#F1B279" d="M12.902,21.721c0,0,0.206,0.071,0.31,0.108c0.104,0.039,0.16,0.037,0.209,0.014
					c0.049-0.021,0.122-0.033,0.144-0.05c0.021-0.018,0.029-0.033,0.029-0.033l0.021-0.051c0,0-0.036,0.028-0.066,0.047
					c-0.029,0.02-0.142,0.056-0.186,0.054c-0.044-0.003-0.162-0.045-0.253-0.07c-0.093-0.023-0.127-0.03-0.162-0.034
					C12.911,21.698,12.902,21.721,12.902,21.721z"/>
				<path fill="#F1B279" d="M12.649,20.945c0,0,0.072,0.252,0.11,0.308c0.038,0.057,0.102,0.123,0.132,0.148
					c0.03,0.026,0.083,0.026,0.083,0.026s-0.084-0.144-0.143-0.259c-0.057-0.113-0.035-0.144-0.035-0.144s-0.076-0.067-0.104-0.083
					C12.665,20.93,12.649,20.945,12.649,20.945z"/>
				<path fill="#F1B279" d="M12.573,22.102c0,0-0.1-0.11-0.147-0.144c-0.047-0.034-0.189-0.073-0.286-0.211
					c-0.098-0.139-0.28-0.741-0.333-0.853c-0.053-0.113-0.26-0.107-0.399-0.155c-0.141-0.048-1.3-0.266-1.3-0.266l-1.659-0.379
					c0,0-0.658-0.176-0.702-0.209c-0.047-0.033-0.157-0.061-0.157-0.061l-0.115,0.322c0,0-0.005,0.047,0.199,0.107
					c0.202,0.063,2.052,0.369,2.052,0.369l1.912,0.271c0,0,0.157,0.5,0.192,0.584c0.034,0.085,0.118,0.314,0.276,0.414
					C12.264,21.991,12.573,22.102,12.573,22.102z"/>
				<path fill="#FFFFFF" d="M13.403,20.837c0,0,0.012,0.118,0.134,0.143c0.125,0.026,0.183-0.003,0.183-0.003
					s-0.08-0.055-0.171-0.098C13.459,20.837,13.403,20.837,13.403,20.837z"/>
			</g>
		</g>
		<g>
			<path fill="#F9CC9B" d="M41.179,29.632v0.246l-0.331,0.285c0,0-0.015,0.015,0.331,0.061c0.347,0.047,0.869,0.054,0.869,0.054
				s0.078-0.215,0.031-0.322c-0.046-0.107-0.078-0.27-0.078-0.27l0.005-0.054H41.179z"/>
			<path fill="#F9CC9B" d="M42.042,29.632c0,0,0.032,0.135,0.037,0.323c0.003,0.188-0.037,0.387-0.037,0.387
				s0.938,0.031,1.016,0.031s0.099-0.045,0.099-0.045s-0.018-0.352-0.042-0.432c-0.025-0.081,0.016-0.211,0.016-0.211L42.042,29.632
				z"/>
			<path fill="#CE1C69" d="M40.916,30.111c0,0-0.113-0.015-0.261,0.062c-0.147,0.077-0.431,0.661-0.717,0.77
				c-0.284,0.106-0.599,0.266-0.667,0.374c-0.069,0.108-0.128,0.364,0.079,0.476c0.206,0.114,0.745,0.19,0.971,0.125
				c0.227-0.067,0.73-0.405,0.73-0.405l0.413-0.277l0.394-0.098L42,31.106l0.094-0.929c0,0-0.256,0.078-0.575,0.046
				C41.2,30.194,40.916,30.111,40.916,30.111z"/>
			<path fill="#CE1C69" d="M41.996,30.277c0,0-0.479,0.834-0.531,0.957s-0.325,0.508-0.272,0.605
				c0.05,0.097-0.047,0.268,0.143,0.353c0.19,0.088,0.801,0.088,1.097,0c0.299-0.086,0.37-0.312,0.422-0.404
				s0.261-0.282,0.303-0.349c0.041-0.067,0.015-0.432,0.035-0.59c0.021-0.16,0.103-0.267,0.072-0.452
				c-0.031-0.184-0.154-0.523-0.154-0.523s0.084,0.421,0.029,0.473c-0.056,0.051-0.726,0.007-0.91,0.002
				c-0.187-0.007-0.145-0.206-0.145-0.206L41.996,30.277z"/>
			<g>
				<path fill="#CE1C69" d="M39.817,8.059l-0.439,1.232c0,0-0.545,1.057-0.667,1.215c-0.124,0.158-1.006,0.568-1.539,0.713
					c-0.533,0.144-0.656,0.122-0.656,0.122v0.862c0,0,1.887-0.104,2.317-0.287c0.431-0.186,0.636-0.35,0.636-0.35l0.188-0.322
					c0,0,0.407-2.416,0.53-2.778c0.121-0.364,0.841-1.041,0.841-1.041l0.121-0.242c0,0-0.451-0.004-0.819,0.263
					C39.962,7.711,39.817,8.059,39.817,8.059z"/>
				<path fill="#341121" d="M40.418,14.135c0-0.155-0.718,1.083-0.755,3.153c-0.031,1.816,0.339,3.722,0.339,3.722l0.739,5.413
					l0.368,3.263h0.892c0,0,0.154-1.845,0.216-2.982c0.062-1.14-0.491-4.801-0.491-4.801l0.061-3.6l-0.093-0.43
					c0,0-0.739-1.169-0.753-1.876c-0.016-0.709,0.23-1.324,0.23-1.324S40.418,14.719,40.418,14.135z"/>
				<path fill="#341121" d="M44.125,14.427c0,0,1.045,1.016,0.922,2.492c-0.123,1.478-0.926,3.585-1.139,4.8
					c-0.117,0.666-0.092,1.813,0,2.706c0.093,0.894,0.02,1.478-0.137,2.832c-0.098,0.837-0.509,2.566-0.509,2.566l-0.907-0.045
					l-0.354-0.093c0,0,0.416-2.382,0.288-3.823c-0.127-1.444-0.455-3.133-0.517-3.927c-0.06-0.796,0.008-3.292,0.008-3.292
					s-0.065-0.668-0.307-1.151c-0.241-0.482-0.648-0.755-0.533-1.834c0.111-1.079,0.23-0.985,0.23-0.985s1.352,0.186,1.845,0.094
					C43.509,14.673,44.125,14.427,44.125,14.427z"/>
				<path fill="#F066A5" d="M40.193,14.427c0,0,0.362-0.481,0.362-0.789s-0.103-0.88-0.266-1.313
					c-0.165-0.43-0.328-0.819-0.328-0.819s-0.492-0.287-0.575-0.819c-0.083-0.534,0.452-1.19,0.452-1.19l0.47-1.395
					c0,0,0.422-0.656,0.61-0.719c0.19-0.062,0.19-0.062,0.19-0.062s-0.115,0.147-0.238,0.516s-0.396,0.797-0.396,0.797
					s0.102,0.062,0.245-0.102c0.145-0.165,0.221-0.165,0.221-0.165l0.634,0.588c0,0,0.658-0.693,0.904-0.857
					c0.245-0.163,0.825-0.407,0.825-0.407l0.596,0.267c0,0-0.342,0.031-0.69,0.565c-0.35,0.532-0.221,0.769-0.221,0.769
					s0.521,0.574,0.828,0.533c0.309-0.04,0.656-0.226,0.656-0.226s-0.759,1.456-0.842,1.968c-0.081,0.514-0.409,1.334-0.183,1.886
					c0.225,0.555,0.677,0.975,0.677,0.975s-0.225,0.431-1.766,0.413c-1.541-0.019-1.845-0.244-1.845-0.244L40.193,14.427z"/>
				<path fill="#CE1C69" d="M42.136,12.13l0.389-1.076l0.464-1.209c0,0,0.049-0.423,0-0.554c-0.047-0.132-0.003-0.677,0.232-0.913
					c0.233-0.235,0.493-0.502,0.904-0.441c0.409,0.062,0.614,0.534,0.492,1.231c-0.124,0.697-0.479,1.104-0.479,1.104
					s-0.486,1.791-0.8,2.266c-0.082,0.127-0.417,0.288-0.417,0.288s0.332-0.323-0.151-0.583
					C42.287,11.984,42.136,12.13,42.136,12.13z"/>
				<path d="M39.959,8.138c-0.381-0.179-0.418-0.052-0.581-0.124c-0.134-0.06-0.472-0.474-0.459-1.354
					c0.014-0.879,0.18-1.246,0.346-1.77c0.165-0.522,0.432-1.299,0.561-1.617c0.127-0.318,0.765-1.146,1.351-1.325
					c0.585-0.179,0.765-0.28,1.414-0.089c0.65,0.19,1.389,0.84,1.681,1.962c0.294,1.121,0.371,2.511,0.18,3.122
					s-0.548,1.248-0.548,1.248l-0.217-0.103c0,0-0.063,0.166-0.549,0.331c-0.483,0.166-0.776,0.063-0.776,0.063
					s0.573-0.471,0.612-0.572c0.038-0.104,0.038-0.104,0.038-0.104l-0.343-0.744c0,0-0.48-0.114-0.801-0.102
					c-0.32,0.014-0.563,0.128-0.563,0.128s-0.221,0.184-0.304,0.231c-0.711,0.421-0.482,1.216-0.482,1.216
					S40.339,8.313,39.959,8.138z"/>
				<path fill="#CE1C69" d="M41.458,6.974c0,0-0.258-0.033-0.518,0.592c-0.262,0.625-0.466,1.068-0.466,1.068h0.109l0.418-0.201
					l0.551,0.581c0,0,0.443-0.526,0.938-0.844c0.493-0.317,0.813-0.479,0.813-0.479s0.163-0.203-0.164-0.492
					c-0.328-0.287-0.491-0.349-0.491-0.349s0.04,0.205,0.04,0.349S42.095,7.69,42.095,7.69l-0.945,0.554c0,0-0.348,0.041-0.08-0.491
					c0.266-0.533,0.389-0.637,0.389-0.637V6.974z"/>
				<path fill="#F1B279" d="M41.464,6.829c0,0,0.038,0.266-0.064,0.354c-0.101,0.088-0.377,0.545-0.419,0.701
					c-0.039,0.156-0.062,0.335,0.067,0.375c0.128,0.042,0.62-0.293,0.62-0.293s0.724-0.394,0.831-0.489
					c0.107-0.094,0.221-0.294,0.221-0.294l-0.07-0.38L41.464,6.829z"/>
				<path fill="#F9CC9B" d="M41.589,6.936c0,0-0.655-0.537-0.962-1.004c-0.306-0.467-0.268-0.556-0.268-0.556
					s-0.065-1.147,0.586-1.977c0.65-0.826,1.032-0.854,1.032-0.854s0.307,0.32,0.511,0.537c0.203,0.217,0.82,0.594,1.032,0.893
					c0.242,0.342,0.399,1.305,0.081,1.815c-0.317,0.509-0.636,0.827-1.044,1.069C42.15,7.103,41.971,7.076,41.589,6.936z"/>
			</g>
		</g>
		<g>
			<polygon fill="#E1AD25" points="29.428,7.802 34.345,3.408 39.207,7.821 39.207,11.547 29.411,11.547 29.411,7.821 			"/>
			
				<rect x="30.591" y="4.555" fill="#FFFFFF" stroke="#F5BB19" stroke-width="0.5" stroke-miterlimit="10" width="7.457" height="6.658"/>
			<rect x="31.3" y="6.185" fill="#94D8EB" width="5.963" height="0.72"/>
			<rect x="31.3" y="7.966" fill="#94D8EB" width="5.963" height="0.722"/>
			<polygon fill="#F6BC17" points="29.411,7.821 29.411,14.448 39.207,14.448 39.207,7.821 35.515,11.134 33.129,11.134 
				29.411,7.786 			"/>
			<polygon fill="#FEC72C" points="29.411,14.448 34.345,10.014 39.207,14.448 			"/>
			<circle fill="#E71E25" cx="37.89" cy="6.355" r="1.086"/>
			<g>
				<path fill="#FFFFFF" d="M37.824,6.048h-0.002l-0.206,0.099l-0.041-0.189l0.285-0.133h0.209v1.078h-0.245V6.048z"/>
			</g>
		</g>
		<g>
			<path fill="#F9CC9B" d="M43.005,12.653c0,0-0.891,0.489-1.443,0.54c-0.552,0.051-1.861,0.613-1.861,0.613l-0.411,0.101
				c0,0-0.19,0.486-0.293,0.651c-0.104,0.166-0.21,0.278-0.441,0.364c-0.233,0.084-0.564,0.173-0.734,0.176
				c-0.171,0.004-0.154-0.014-0.225-0.04c-0.069-0.027-0.105-0.13-0.105-0.13s-0.055-0.054-0.09-0.11
				c-0.034-0.057-0.054-0.121-0.054-0.121s-0.027-0.026-0.055-0.104c-0.027-0.079-0.048-0.156-0.023-0.174s0.111,0.021,0.262,0.02
				c0.148-0.001,0.308-0.018,0.371-0.075c0.062-0.06,0.183-0.293,0.201-0.365c0.018-0.073,0.023-0.086,0.023-0.086
				s-0.237,0.11-0.382,0.145c-0.146,0.032-0.308,0.001-0.403-0.033c-0.097-0.035-0.171-0.094-0.147-0.156
				c0.022-0.063,0.242-0.119,0.242-0.119s0.172-0.04,0.266-0.101c0.094-0.06,0.298-0.292,0.462-0.356
				c0.164-0.063,0.442-0.171,0.563-0.148c0.124,0.021,0.293,0.072,0.293,0.072l1.255-0.393l1.108-0.457l0.973-0.306
				c0,0,0.522-0.127,0.779,0.305c0.26,0.431,0.049,0.209,0.049,0.209L43.005,12.653z"/>
			<path fill="#F1B279" d="M38.054,14.803c0,0-0.223,0.139-0.317,0.176c-0.096,0.038-0.224-0.002-0.224-0.002l-0.022-0.048
				c0,0,0.073-0.025,0.153-0.028c0.078-0.005,0.131-0.017,0.222-0.054C37.955,14.813,38.008,14.78,38.054,14.803z"/>
			<path fill="#F1B279" d="M38.01,14.612c0,0-0.207,0.071-0.31,0.111c-0.104,0.037-0.16,0.035-0.21,0.014
				c-0.049-0.023-0.122-0.036-0.144-0.052c-0.02-0.017-0.029-0.033-0.029-0.033l-0.021-0.05c0,0,0.036,0.028,0.066,0.047
				c0.029,0.02,0.142,0.055,0.185,0.052c0.045-0.002,0.164-0.044,0.255-0.07c0.089-0.023,0.126-0.029,0.162-0.034
				S38.01,14.612,38.01,14.612z"/>
			<path fill="#F1B279" d="M38.262,13.838c0,0-0.071,0.251-0.11,0.308c-0.038,0.056-0.103,0.122-0.132,0.148
				c-0.029,0.025-0.082,0.025-0.082,0.025s0.083-0.144,0.141-0.259c0.059-0.112,0.036-0.144,0.036-0.144s0.076-0.066,0.104-0.081
				C38.245,13.822,38.262,13.838,38.262,13.838z"/>
			<path fill="#F1B279" d="M38.337,14.994c0,0,0.101-0.109,0.148-0.144c0.046-0.033,0.189-0.073,0.287-0.211
				c0.098-0.14,0.278-0.741,0.333-0.854c0.052-0.111,0.259-0.107,0.397-0.153c0.141-0.05,1.249-0.314,1.249-0.314l1.553-0.466
				c0,0,0.639-0.221,0.684-0.253s0.156-0.062,0.156-0.062l0.102,0.094c0,0-0.445,0.286-0.649,0.348
				c-0.203,0.06-1.476,0.473-1.476,0.473l-1.832,0.455c0,0-0.173,0.38-0.208,0.465c-0.034,0.084-0.116,0.313-0.274,0.414
				C38.646,14.885,38.337,14.994,38.337,14.994z"/>
			<path fill="#FFFFFF" d="M37.508,13.729c0,0-0.012,0.119-0.136,0.144c-0.123,0.025-0.179-0.004-0.179-0.004
				s0.077-0.056,0.168-0.098S37.508,13.729,37.508,13.729z"/>
		</g>
	</g>
</g>
<g id="Layer_19">
</g>
<g id="Layer_17">
</g>
<g id="Layer_21">
</g>
<g id="Layer_16">
</g>
<g id="Layer_18">
</g>
<g id="Layer_20">
</g>
<g id="Layer_22">
</g>
</svg>
