<svg width="493" height="104" viewBox="0 0 493 104" fill="none" xmlns="http://www.w3.org/2000/svg">
<path d="M0 0H453C453 0 438.368 17.2339 423.561 24.4841C398.73 36.6428 375.256 27.5962 346.058 34.1172C293.287 45.9032 278.378 72.4543 226.5 85.8952C166.264 101.502 125.775 109.01 62.4828 100.345C37.1869 96.8815 0 85.8952 0 85.8952V0Z" fill="#00D7FF"/>
<path opacity="0.8" d="M0 0H474C474 0 458.689 17.2339 443.196 24.4841C417.215 36.6428 392.652 27.5962 362.101 34.1172C306.883 45.9032 291.283 72.4543 237 85.8952C173.971 101.502 131.605 109.01 65.3793 100.345C38.9108 96.8815 0 85.8952 0 85.8952V0Z" fill="#00D7FF"/>
<path opacity="0.6" d="M0 0H493C493 0 477.076 17.2339 460.962 24.4841C433.938 36.6428 408.391 27.5962 376.615 34.1172C319.184 45.9032 302.959 72.4543 246.5 85.8952C180.945 101.502 136.881 109.01 68 100.345C40.4705 96.8815 0 85.8952 0 85.8952V0Z" fill="url(#paint0_linear)"/>
<defs>
<linearGradient id="paint0_linear" x1="-8.5" y1="83.5" x2="384.5" y2="-8.50003" gradientUnits="userSpaceOnUse">
<stop offset="0.0175352" stop-color="#00D7FF"/>
<stop offset="1" stop-color="#00D7FF" stop-opacity="0.37"/>
</linearGradient>
</defs>
</svg>
