<?xml version="1.0" encoding="UTF-8"?>
<!DOCTYPE svg PUBLIC "-//W3C//DTD SVG 1.1//EN" "http://www.w3.org/Graphics/SVG/1.1/DTD/svg11.dtd">
<!-- Creator: CorelDRAW X7 -->
<svg xmlns="http://www.w3.org/2000/svg" xml:space="preserve" width="0.399996in" height="0.399996in" version="1.1" style="shape-rendering:geometricPrecision; text-rendering:geometricPrecision; image-rendering:optimizeQuality; fill-rule:evenodd; clip-rule:evenodd"
viewBox="0 0 400 400"
 xmlns:xlink="http://www.w3.org/1999/xlink">
 <defs>
  <style type="text/css">
   <![CDATA[
    .fil1 {fill:#96C8EB}
    .fil2 {fill:#97C9EB}
    .fil3 {fill:#99CAEC}
    .fil4 {fill:#9ACAEC}
    .fil5 {fill:#9BCBEC}
    .fil6 {fill:#9CCCED}
    .fil7 {fill:#9ECDED}
    .fil8 {fill:#9FCEED}
    .fil9 {fill:#A0CEED}
    .fil10 {fill:#A1CFEE}
    .fil11 {fill:#A2D0EE}
    .fil12 {fill:#A4D0EE}
    .fil13 {fill:#A5D1EF}
    .fil14 {fill:#A6D2EF}
    .fil15 {fill:#A7D3EF}
    .fil16 {fill:#A8D3EF}
    .fil17 {fill:#A9D4F0}
    .fil18 {fill:#AAD5F0}
    .fil19 {fill:#ABD5F0}
    .fil20 {fill:#ACD6F0}
    .fil21 {fill:#ADD6F1}
    .fil22 {fill:#AED7F1}
    .fil23 {fill:#AFD8F1}
    .fil24 {fill:#B0D8F1}
    .fil25 {fill:#B1D9F2}
    .fil26 {fill:#B2D9F2}
    .fil27 {fill:#B3DAF2}
    .fil28 {fill:#B4DAF2}
    .fil29 {fill:#B5DBF2}
    .fil30 {fill:#B5DCF3}
    .fil31 {fill:#B6DCF3}
    .fil32 {fill:#B7DDF3}
    .fil33 {fill:#B8DDF3}
    .fil34 {fill:#B9DEF4}
    .fil35 {fill:#BADEF4}
    .fil36 {fill:#BBDFF4}
    .fil37 {fill:#BCE0F4}
    .fil38 {fill:#BDE0F4}
    .fil39 {fill:#BEE1F5}
    .fil40 {fill:#BFE2F5}
    .fil41 {fill:#C0E2F5}
    .fil42 {fill:#C1E2F5}
    .fil43 {fill:#C1E3F6}
    .fil44 {fill:#C2E3F6}
    .fil45 {fill:#C3E4F6}
    .fil46 {fill:#C4E5F6}
    .fil47 {fill:#C5E5F6}
    .fil48 {fill:#C6E6F7}
    .fil49 {fill:#C7E6F7}
    .fil50 {fill:#C7E7F7}
    .fil51 {fill:#C8E7F7}
    .fil52 {fill:#C9E8F7}
    .fil53 {fill:#C9E8F8}
    .fil54 {fill:#CAE8F8}
    .fil55 {fill:#CAE9F8}
    .fil56 {fill:#CBE9F8}
    .fil57 {fill:#CCE9F8}
    .fil58 {fill:#CCEAF8}
    .fil59 {fill:#CDEAF8}
    .fil60 {fill:#CDEAF9}
    .fil61 {fill:#CEEBF9}
    .fil62 {fill:#CFEBF9}
    .fil63 {fill:#CFECF9}
    .fil64 {fill:#D0ECF9}
    .fil65 {fill:#D1EDF9}
    .fil66 {fill:#D1EDFA}
    .fil67 {fill:#D2EDFA}
    .fil68 {fill:#D2EEFA}
    .fil69 {fill:#D3EEFA}
    .fil70 {fill:#D4EEFA}
    .fil71 {fill:#D4EFFA}
    .fil72 {fill:#D5EFFA}
    .fil73 {fill:#D6F0FB}
    .fil74 {fill:#D7F0FB}
    .fil75 {fill:#D7F1FB}
    .fil76 {fill:#D8F1FB}
    .fil77 {fill:#D9F1FB}
    .fil78 {fill:#D9F2FB}
    .fil79 {fill:#DAF2FC}
    .fil80 {fill:#DAF3FC}
    .fil81 {fill:#DBF3FC}
    .fil82 {fill:#DCF3FC}
    .fil83 {fill:#DCF4FC}
    .fil84 {fill:#DDF4FC}
    .fil85 {fill:#DEF5FC}
    .fil86 {fill:#DEF5FD}
    .fil87 {fill:#DFF5FD}
    .fil88 {fill:#DFF6FD}
    .fil89 {fill:#E0F6FD}
    .fil90 {fill:#E1F6FD}
    .fil91 {fill:#E1F7FD}
    .fil92 {fill:#E2F7FD}
    .fil93 {fill:#E2F7FE}
    .fil94 {fill:#E2F8FE}
    .fil95 {fill:#E3F8FE}
    .fil96 {fill:#E4F8FE}
    .fil97 {fill:#E4F9FE}
    .fil98 {fill:#E5F9FE}
    .fil99 {fill:#E6F9FE}
    .fil100 {fill:#E6FAFE}
    .fil101 {fill:#E6FAFF}
    .fil102 {fill:#E7FAFF}
    .fil103 {fill:#E7FBFF}
    .fil0 {fill:#E8FBFF}
    .fil104 {fill:#FF6600}
    .fil105 {fill:black;fill-rule:nonzero}
   ]]>
  </style>
     <clipPath id="id0">
      <path d="M65 16l270 0c27,0 49,22 49,49l0 270c0,27 -22,49 -49,49l-270 0c-27,0 -49,-22 -49,-49l0 -270c0,-27 22,-49 49,-49z"/>
     </clipPath>
 </defs>
 <g id="Layer_x0020_1">
  <metadata id="CorelCorpID_0Corel-Layer"/>
  <g id="_2680135311488">
   <rect class="fil0" width="400" height="400" rx="52" ry="52"/>
   <g>
    <g style="clip-path:url(#id0)">
     <g>
      <polygon class="fil1" points="12,383 12,381 383,385 383,388 "/>
     </g>
     <g>
      <polygon id="1" class="fil2" points="12,381 12,379 383,384 383,386 "/>
     </g>
     <g>
      <polygon id="2" class="fil3" points="12,380 12,378 383,382 383,385 "/>
     </g>
     <g>
      <polygon id="3" class="fil4" points="12,378 12,376 383,381 383,383 "/>
     </g>
     <g>
      <polygon id="4" class="fil5" points="12,377 12,375 383,380 383,382 "/>
     </g>
     <g>
      <polygon id="5" class="fil6" points="12,376 12,373 383,378 383,380 "/>
     </g>
     <g>
      <polygon id="6" class="fil7" points="12,374 12,372 383,377 383,379 "/>
     </g>
     <g>
      <polygon id="7" class="fil8" points="12,373 12,371 383,375 383,377 "/>
     </g>
     <g>
      <polygon id="8" class="fil9" points="12,371 12,369 384,374 383,376 "/>
     </g>
     <g>
      <polygon id="9" class="fil10" points="12,370 12,368 384,372 384,375 "/>
     </g>
     <g>
      <polygon id="10" class="fil11" points="12,368 12,366 384,371 384,373 "/>
     </g>
     <g>
      <polygon id="11" class="fil12" points="12,367 12,365 384,370 384,372 "/>
     </g>
     <g>
      <polygon id="12" class="fil13" points="12,365 12,363 384,368 384,370 "/>
     </g>
     <g>
      <polygon id="13" class="fil14" points="12,364 12,362 384,367 384,369 "/>
     </g>
     <g>
      <polygon id="14" class="fil15" points="12,363 12,360 384,365 384,367 "/>
     </g>
     <g>
      <polygon id="15" class="fil16" points="12,361 12,359 384,364 384,366 "/>
     </g>
     <g>
      <polygon id="16" class="fil17" points="12,360 12,358 384,362 384,365 "/>
     </g>
     <g>
      <polygon id="17" class="fil18" points="12,358 12,356 384,361 384,363 "/>
     </g>
     <g>
      <polygon id="18" class="fil19" points="12,357 12,355 384,359 384,362 "/>
     </g>
     <g>
      <polygon id="19" class="fil20" points="12,355 12,353 384,358 384,360 "/>
     </g>
     <g>
      <polygon id="20" class="fil21" points="12,354 12,352 384,357 384,359 "/>
     </g>
     <g>
      <polygon id="21" class="fil22" points="12,353 12,350 384,355 384,357 "/>
     </g>
     <g>
      <polygon id="22" class="fil23" points="12,351 12,349 384,354 384,356 "/>
     </g>
     <g>
      <polygon id="23" class="fil24" points="12,350 12,348 384,352 384,354 "/>
     </g>
     <g>
      <polygon id="24" class="fil25" points="12,348 12,346 384,351 384,353 "/>
     </g>
     <g>
      <polygon id="25" class="fil26" points="12,347 12,345 384,349 384,352 "/>
     </g>
     <g>
      <polygon id="26" class="fil27" points="12,345 12,343 384,348 384,350 "/>
     </g>
     <g>
      <polygon id="27" class="fil28" points="12,344 12,342 384,347 384,349 "/>
     </g>
     <g>
      <polygon id="28" class="fil29" points="12,343 12,340 384,345 384,347 "/>
     </g>
     <g>
      <polygon id="29" class="fil30" points="12,341 12,339 384,344 384,346 "/>
     </g>
     <g>
      <polygon id="30" class="fil31" points="12,340 12,338 384,342 384,344 "/>
     </g>
     <g>
      <polygon id="31" class="fil32" points="12,338 13,336 384,341 384,343 "/>
     </g>
     <g>
      <polygon id="32" class="fil33" points="13,337 13,335 384,339 384,342 "/>
     </g>
     <g>
      <polygon id="33" class="fil34" points="13,335 13,333 384,338 384,340 "/>
     </g>
     <g>
      <polygon id="34" class="fil35" points="13,334 13,332 384,337 384,339 "/>
     </g>
     <g>
      <polygon id="35" class="fil36" points="13,332 13,330 384,335 384,337 "/>
     </g>
     <g>
      <polygon id="36" class="fil36" points="13,331 13,329 384,334 384,336 "/>
     </g>
     <g>
      <polygon id="37" class="fil37" points="13,330 13,327 384,332 384,334 "/>
     </g>
     <g>
      <polygon id="38" class="fil38" points="13,328 13,326 384,331 384,333 "/>
     </g>
     <g>
      <polygon id="39" class="fil39" points="13,327 13,325 384,329 384,332 "/>
     </g>
     <g>
      <polygon id="40" class="fil39" points="13,325 13,323 384,328 384,330 "/>
     </g>
     <g>
      <polygon id="41" class="fil40" points="13,324 13,322 384,326 384,329 "/>
     </g>
     <g>
      <polygon id="42" class="fil41" points="13,322 13,320 384,325 384,327 "/>
     </g>
     <g>
      <polygon id="43" class="fil42" points="13,321 13,319 384,324 384,326 "/>
     </g>
     <g>
      <polygon id="44" class="fil43" points="13,320 13,317 384,322 384,324 "/>
     </g>
     <g>
      <polygon id="45" class="fil44" points="13,318 13,316 384,321 384,323 "/>
     </g>
     <g>
      <polygon id="46" class="fil45" points="13,317 13,315 384,319 384,321 "/>
     </g>
     <g>
      <polygon id="47" class="fil45" points="13,315 13,313 384,318 384,320 "/>
     </g>
     <g>
      <polygon id="48" class="fil46" points="13,314 13,312 384,316 384,319 "/>
     </g>
     <g>
      <polygon id="49" class="fil47" points="13,312 13,310 384,315 384,317 "/>
     </g>
     <g>
      <polygon id="50" class="fil47" points="13,311 13,309 384,314 384,316 "/>
     </g>
     <g>
      <polygon id="51" class="fil48" points="13,310 13,307 384,312 384,314 "/>
     </g>
     <g>
      <polygon id="52" class="fil48" points="13,308 13,306 384,311 384,313 "/>
     </g>
     <g>
      <polygon id="53" class="fil49" points="13,307 13,305 384,309 384,311 "/>
     </g>
     <g>
      <polygon id="54" class="fil50" points="13,305 13,303 384,308 384,310 "/>
     </g>
     <g>
      <polygon id="55" class="fil51" points="13,304 13,302 384,306 384,309 "/>
     </g>
     <g>
      <polygon id="56" class="fil51" points="13,302 13,300 384,305 384,307 "/>
     </g>
     <g>
      <polygon id="57" class="fil52" points="13,301 13,299 384,304 384,306 "/>
     </g>
     <g>
      <polygon id="58" class="fil53" points="13,299 13,297 384,302 384,304 "/>
     </g>
     <g>
      <polygon id="59" class="fil54" points="13,298 13,296 384,301 384,303 "/>
     </g>
     <g>
      <polygon id="60" class="fil55" points="13,297 13,294 384,299 384,301 "/>
     </g>
     <g>
      <polygon id="61" class="fil56" points="13,295 13,293 384,298 384,300 "/>
     </g>
     <g>
      <polygon id="62" class="fil56" points="13,294 13,292 385,296 384,299 "/>
     </g>
     <g>
      <polygon id="63" class="fil57" points="13,292 13,290 385,295 384,297 "/>
     </g>
     <g>
      <polygon id="64" class="fil58" points="13,291 13,289 385,293 385,296 "/>
     </g>
     <g>
      <polygon id="65" class="fil59" points="13,289 13,287 385,292 385,294 "/>
     </g>
     <g>
      <polygon id="66" class="fil59" points="13,288 13,286 385,291 385,293 "/>
     </g>
     <g>
      <polygon id="67" class="fil60" points="13,287 13,284 385,289 385,291 "/>
     </g>
     <g>
      <polygon id="68" class="fil61" points="13,285 13,283 385,288 385,290 "/>
     </g>
     <g>
      <polygon id="69" class="fil61" points="13,284 13,282 385,286 385,288 "/>
     </g>
     <g>
      <polygon id="70" class="fil62" points="13,282 13,280 385,285 385,287 "/>
     </g>
     <g>
      <polygon id="71" class="fil62" points="13,281 13,279 385,283 385,286 "/>
     </g>
     <g>
      <polygon id="72" class="fil63" points="13,279 13,277 385,282 385,284 "/>
     </g>
     <g>
      <polygon id="73" class="fil64" points="13,278 13,276 385,281 385,283 "/>
     </g>
     <g>
      <polygon id="74" class="fil64" points="13,277 13,274 385,279 385,281 "/>
     </g>
     <g>
      <polygon id="75" class="fil64" points="13,275 13,273 385,278 385,280 "/>
     </g>
     <g>
      <polygon id="76" class="fil65" points="13,274 13,272 385,276 385,278 "/>
     </g>
     <g>
      <polygon id="77" class="fil65" points="13,272 13,270 385,275 385,277 "/>
     </g>
     <g>
      <polygon id="78" class="fil66" points="13,271 13,269 385,273 385,276 "/>
     </g>
     <g>
      <polygon id="79" class="fil67" points="13,269 13,267 385,272 385,274 "/>
     </g>
     <g>
      <polygon id="80" class="fil67" points="13,268 13,266 385,271 385,273 "/>
     </g>
     <g>
      <polygon id="81" class="fil68" points="13,266 13,264 385,269 385,271 "/>
     </g>
     <g>
      <polygon id="82" class="fil69" points="13,265 13,263 385,268 385,270 "/>
     </g>
     <g>
      <polygon id="83" class="fil69" points="13,264 13,261 385,266 385,268 "/>
     </g>
     <g>
      <polygon id="84" class="fil69" points="13,262 13,260 385,265 385,267 "/>
     </g>
     <g>
      <polygon id="85" class="fil70" points="13,261 14,259 385,263 385,266 "/>
     </g>
     <g>
      <polygon id="86" class="fil71" points="13,259 14,257 385,262 385,264 "/>
     </g>
     <g>
      <polygon id="87" class="fil71" points="14,258 14,256 385,260 385,263 "/>
     </g>
     <g>
      <polygon id="88" class="fil71" points="14,256 14,254 385,259 385,261 "/>
     </g>
     <g>
      <polygon id="89" class="fil72" points="14,255 14,253 385,258 385,260 "/>
     </g>
     <g>
      <polygon id="90" class="fil72" points="14,254 14,251 385,256 385,258 "/>
     </g>
     <g>
      <polygon id="91" class="fil72" points="14,252 14,250 385,255 385,257 "/>
     </g>
     <g>
      <polygon id="92" class="fil73" points="14,251 14,249 385,253 385,255 "/>
     </g>
     <g>
      <polygon id="93" class="fil73" points="14,249 14,247 385,252 385,254 "/>
     </g>
     <g>
      <polygon id="94" class="fil73" points="14,248 14,246 385,250 385,253 "/>
     </g>
     <g>
      <polygon id="95" class="fil73" points="14,246 14,244 385,249 385,251 "/>
     </g>
     <g>
      <polygon id="96" class="fil74" points="14,245 14,243 385,248 385,250 "/>
     </g>
     <g>
      <polygon id="97" class="fil74" points="14,244 14,241 385,246 385,248 "/>
     </g>
     <g>
      <polygon id="98" class="fil74" points="14,242 14,240 385,245 385,247 "/>
     </g>
     <g>
      <polygon id="99" class="fil75" points="14,241 14,239 385,243 385,245 "/>
     </g>
     <g>
      <polygon id="100" class="fil76" points="14,239 14,237 385,242 385,244 "/>
     </g>
     <g>
      <polygon id="101" class="fil76" points="14,238 14,236 385,240 385,243 "/>
     </g>
     <g>
      <polygon id="102" class="fil76" points="14,236 14,234 385,239 385,241 "/>
     </g>
     <g>
      <polygon id="103" class="fil76" points="14,235 14,233 385,238 385,240 "/>
     </g>
     <g>
      <polygon id="104" class="fil76" points="14,233 14,231 385,236 385,238 "/>
     </g>
     <g>
      <polygon id="105" class="fil77" points="14,232 14,230 385,235 385,237 "/>
     </g>
     <g>
      <polygon id="106" class="fil78" points="14,231 14,228 385,233 385,235 "/>
     </g>
     <g>
      <polygon id="107" class="fil78" points="14,229 14,227 385,232 385,234 "/>
     </g>
     <g>
      <polygon id="108" class="fil78" points="14,228 14,226 385,230 385,233 "/>
     </g>
     <g>
      <polygon id="109" class="fil78" points="14,226 14,224 385,229 385,231 "/>
     </g>
     <g>
      <polygon id="110" class="fil79" points="14,225 14,223 385,227 385,230 "/>
     </g>
     <g>
      <polygon id="111" class="fil79" points="14,223 14,221 385,226 385,228 "/>
     </g>
     <g>
      <polygon id="112" class="fil79" points="14,222 14,220 385,225 385,227 "/>
     </g>
     <g>
      <polygon id="113" class="fil79" points="14,221 14,218 385,223 385,225 "/>
     </g>
     <g>
      <polygon id="114" class="fil80" points="14,219 14,217 385,222 385,224 "/>
     </g>
     <g>
      <polygon id="115" class="fil81" points="14,218 14,216 385,220 385,222 "/>
     </g>
     <g>
      <polygon id="116" class="fil81" points="14,216 14,214 385,219 385,221 "/>
     </g>
     <g>
      <polygon id="117" class="fil81" points="14,215 14,213 386,217 385,220 "/>
     </g>
     <g>
      <polygon id="118" class="fil81" points="14,213 14,211 386,216 386,218 "/>
     </g>
     <g>
      <polygon id="119" class="fil81" points="14,212 14,210 386,215 386,217 "/>
     </g>
     <g>
      <polygon id="120" class="fil82" points="14,211 14,208 386,213 386,215 "/>
     </g>
     <g>
      <polygon id="121" class="fil82" points="14,209 14,207 386,212 386,214 "/>
     </g>
     <g>
      <polygon id="122" class="fil82" points="14,208 14,206 386,210 386,212 "/>
     </g>
     <g>
      <polygon id="123" class="fil83" points="14,206 14,204 386,209 386,211 "/>
     </g>
     <g>
      <polygon id="124" class="fil83" points="14,205 14,203 386,207 386,210 "/>
     </g>
     <g>
      <polygon id="125" class="fil83" points="14,203 14,201 386,206 386,208 "/>
     </g>
     <g>
      <polygon id="126" class="fil84" points="14,202 14,200 386,205 386,207 "/>
     </g>
     <g>
      <polygon id="127" class="fil84" points="14,200 14,198 386,203 386,205 "/>
     </g>
     <g>
      <polygon id="128" class="fil84" points="14,199 14,197 386,202 386,204 "/>
     </g>
     <g>
      <polygon id="129" class="fil84" points="14,198 14,195 386,200 386,202 "/>
     </g>
     <g>
      <polygon id="130" class="fil84" points="14,196 14,194 386,199 386,201 "/>
     </g>
     <g>
      <polygon id="131" class="fil84" points="14,195 14,193 386,197 386,200 "/>
     </g>
     <g>
      <polygon id="132" class="fil84" points="14,193 14,191 386,196 386,198 "/>
     </g>
     <g>
      <polygon id="133" class="fil85" points="14,192 14,190 386,194 386,197 "/>
     </g>
     <g>
      <polygon id="134" class="fil86" points="14,190 14,188 386,193 386,195 "/>
     </g>
     <g>
      <polygon id="135" class="fil86" points="14,189 14,187 386,192 386,194 "/>
     </g>
     <g>
      <polygon id="136" class="fil86" points="14,188 14,185 386,190 386,192 "/>
     </g>
     <g>
      <polygon id="137" class="fil86" points="14,186 14,184 386,189 386,191 "/>
     </g>
     <g>
      <polygon id="138" class="fil86" points="14,185 14,183 386,187 386,189 "/>
     </g>
     <g>
      <polygon id="139" class="fil86" points="14,183 14,181 386,186 386,188 "/>
     </g>
     <g>
      <polygon id="140" class="fil87" points="14,182 15,180 386,184 386,187 "/>
     </g>
     <g>
      <polygon id="141" class="fil87" points="15,180 15,178 386,183 386,185 "/>
     </g>
     <g>
      <polygon id="142" class="fil87" points="15,179 15,177 386,182 386,184 "/>
     </g>
     <g>
      <polygon id="143" class="fil87" points="15,178 15,175 386,180 386,182 "/>
     </g>
     <g>
      <polygon id="144" class="fil87" points="15,176 15,174 386,179 386,181 "/>
     </g>
     <g>
      <polygon id="145" class="fil88" points="15,175 15,173 386,177 386,179 "/>
     </g>
     <g>
      <polygon id="146" class="fil88" points="15,173 15,171 386,176 386,178 "/>
     </g>
     <g>
      <polygon id="147" class="fil89" points="15,172 15,170 386,174 386,177 "/>
     </g>
     <g>
      <polygon id="148" class="fil89" points="15,170 15,168 386,173 386,175 "/>
     </g>
     <g>
      <polygon id="149" class="fil89" points="15,169 15,167 386,172 386,174 "/>
     </g>
     <g>
      <polygon id="150" class="fil89" points="15,167 15,165 386,170 386,172 "/>
     </g>
     <g>
      <polygon id="151" class="fil89" points="15,166 15,164 386,169 386,171 "/>
     </g>
     <g>
      <polygon id="152" class="fil89" points="15,165 15,162 386,167 386,169 "/>
     </g>
     <g>
      <polygon id="153" class="fil89" points="15,163 15,161 386,166 386,168 "/>
     </g>
     <g>
      <polygon id="154" class="fil89" points="15,162 15,160 386,164 386,167 "/>
     </g>
     <g>
      <polygon id="155" class="fil89" points="15,160 15,158 386,163 386,165 "/>
     </g>
     <g>
      <polygon id="156" class="fil90" points="15,159 15,157 386,161 386,164 "/>
     </g>
     <g>
      <polygon id="157" class="fil90" points="15,157 15,155 386,160 386,162 "/>
     </g>
     <g>
      <polygon id="158" class="fil91" points="15,156 15,154 386,159 386,161 "/>
     </g>
     <g>
      <polygon id="159" class="fil91" points="15,155 15,152 386,157 386,159 "/>
     </g>
     <g>
      <polygon id="160" class="fil91" points="15,153 15,151 386,156 386,158 "/>
     </g>
     <g>
      <polygon id="161" class="fil91" points="15,152 15,150 386,154 386,156 "/>
     </g>
     <g>
      <polygon id="162" class="fil91" points="15,150 15,148 386,153 386,155 "/>
     </g>
     <g>
      <polygon id="163" class="fil91" points="15,149 15,147 386,151 386,154 "/>
     </g>
     <g>
      <polygon id="164" class="fil91" points="15,147 15,145 386,150 386,152 "/>
     </g>
     <g>
      <polygon id="165" class="fil92" points="15,146 15,144 386,149 386,151 "/>
     </g>
     <g>
      <polygon id="166" class="fil92" points="15,145 15,142 386,147 386,149 "/>
     </g>
     <g>
      <polygon id="167" class="fil92" points="15,143 15,141 386,146 386,148 "/>
     </g>
     <g>
      <polygon id="168" class="fil93" points="15,142 15,140 386,144 386,146 "/>
     </g>
     <g>
      <polygon id="169" class="fil93" points="15,140 15,138 386,143 386,145 "/>
     </g>
     <g>
      <polygon id="170" class="fil93" points="15,139 15,137 386,141 386,144 "/>
     </g>
     <g>
      <polygon id="171" class="fil93" points="15,137 15,135 387,140 386,142 "/>
     </g>
     <g>
      <polygon id="172" class="fil93" points="15,136 15,134 387,139 387,141 "/>
     </g>
     <g>
      <polygon id="173" class="fil93" points="15,134 15,132 387,137 387,139 "/>
     </g>
     <g>
      <polygon id="174" class="fil94" points="15,133 15,131 387,136 387,138 "/>
     </g>
     <g>
      <polygon id="175" class="fil95" points="15,132 15,129 387,134 387,136 "/>
     </g>
     <g>
      <polygon id="176" class="fil95" points="15,130 15,128 387,133 387,135 "/>
     </g>
     <g>
      <polygon id="177" class="fil95" points="15,129 15,127 387,131 387,134 "/>
     </g>
     <g>
      <polygon id="178" class="fil95" points="15,127 15,125 387,130 387,132 "/>
     </g>
     <g>
      <polygon id="179" class="fil95" points="15,126 15,124 387,128 387,131 "/>
     </g>
     <g>
      <polygon id="180" class="fil95" points="15,124 15,122 387,127 387,129 "/>
     </g>
     <g>
      <polygon id="181" class="fil95" points="15,123 15,121 387,126 387,128 "/>
     </g>
     <g>
      <polygon id="182" class="fil95" points="15,122 15,119 387,124 387,126 "/>
     </g>
     <g>
      <polygon id="183" class="fil95" points="15,120 15,118 387,123 387,125 "/>
     </g>
     <g>
      <polygon id="184" class="fil95" points="15,119 15,117 387,121 387,123 "/>
     </g>
     <g>
      <polygon id="185" class="fil95" points="15,117 15,115 387,120 387,122 "/>
     </g>
     <g>
      <polygon id="186" class="fil96" points="15,116 15,114 387,118 387,121 "/>
     </g>
     <g>
      <polygon id="187" class="fil96" points="15,114 15,112 387,117 387,119 "/>
     </g>
     <g>
      <polygon id="188" class="fil96" points="15,113 15,111 387,116 387,118 "/>
     </g>
     <g>
      <polygon id="189" class="fil96" points="15,112 15,109 387,114 387,116 "/>
     </g>
     <g>
      <polygon id="190" class="fil96" points="15,110 15,108 387,113 387,115 "/>
     </g>
     <g>
      <polygon id="191" class="fil96" points="15,109 15,107 387,111 387,113 "/>
     </g>
     <g>
      <polygon id="192" class="fil97" points="15,107 15,105 387,110 387,112 "/>
     </g>
     <g>
      <polygon id="193" class="fil97" points="15,106 15,104 387,108 387,111 "/>
     </g>
     <g>
      <polygon id="194" class="fil97" points="15,104 16,102 387,107 387,109 "/>
     </g>
     <g>
      <polygon id="195" class="fil97" points="16,103 16,101 387,106 387,108 "/>
     </g>
     <g>
      <polygon id="196" class="fil97" points="16,101 16,99 387,104 387,106 "/>
     </g>
     <g>
      <polygon id="197" class="fil97" points="16,100 16,98 387,103 387,105 "/>
     </g>
     <g>
      <polygon id="198" class="fil98" points="16,99 16,96 387,101 387,103 "/>
     </g>
     <g>
      <polygon id="199" class="fil98" points="16,97 16,95 387,100 387,102 "/>
     </g>
     <g>
      <polygon id="200" class="fil98" points="16,96 16,94 387,98 387,101 "/>
     </g>
     <g>
      <polygon id="201" class="fil98" points="16,94 16,92 387,97 387,99 "/>
     </g>
     <g>
      <polygon id="202" class="fil98" points="16,93 16,91 387,95 387,98 "/>
     </g>
     <g>
      <polygon id="203" class="fil98" points="16,91 16,89 387,94 387,96 "/>
     </g>
     <g>
      <polygon id="204" class="fil98" points="16,90 16,88 387,93 387,95 "/>
     </g>
     <g>
      <polygon id="205" class="fil98" points="16,89 16,86 387,91 387,93 "/>
     </g>
     <g>
      <polygon id="206" class="fil98" points="16,87 16,85 387,90 387,92 "/>
     </g>
     <g>
      <polygon id="207" class="fil98" points="16,86 16,84 387,88 387,90 "/>
     </g>
     <g>
      <polygon id="208" class="fil98" points="16,84 16,82 387,87 387,89 "/>
     </g>
     <g>
      <polygon id="209" class="fil98" points="16,83 16,81 387,85 387,88 "/>
     </g>
     <g>
      <polygon id="210" class="fil98" points="16,81 16,79 387,84 387,86 "/>
     </g>
     <g>
      <polygon id="211" class="fil98" points="16,80 16,78 387,83 387,85 "/>
     </g>
     <g>
      <polygon id="212" class="fil99" points="16,79 16,76 387,81 387,83 "/>
     </g>
     <g>
      <polygon id="213" class="fil99" points="16,77 16,75 387,80 387,82 "/>
     </g>
     <g>
      <polygon id="214" class="fil100" points="16,76 16,74 387,78 387,80 "/>
     </g>
     <g>
      <polygon id="215" class="fil100" points="16,74 16,72 387,77 387,79 "/>
     </g>
     <g>
      <polygon id="216" class="fil100" points="16,73 16,71 387,75 387,78 "/>
     </g>
     <g>
      <polygon id="217" class="fil100" points="16,71 16,69 387,74 387,76 "/>
     </g>
     <g>
      <polygon id="218" class="fil100" points="16,70 16,68 387,73 387,75 "/>
     </g>
     <g>
      <polygon id="219" class="fil101" points="16,68 16,66 387,71 387,73 "/>
     </g>
     <g>
      <polygon id="220" class="fil101" points="16,67 16,65 387,70 387,72 "/>
     </g>
     <g>
      <polygon id="221" class="fil101" points="16,66 16,63 387,68 387,70 "/>
     </g>
     <g>
      <polygon id="222" class="fil101" points="16,64 16,62 387,67 387,69 "/>
     </g>
     <g>
      <polygon id="223" class="fil101" points="16,63 16,61 387,65 387,68 "/>
     </g>
     <g>
      <polygon id="224" class="fil101" points="16,61 16,59 387,64 387,66 "/>
     </g>
     <g>
      <polygon id="225" class="fil101" points="16,60 16,58 388,62 387,65 "/>
     </g>
     <g>
      <polygon id="226" class="fil101" points="16,58 16,56 388,61 387,63 "/>
     </g>
     <g>
      <polygon id="227" class="fil101" points="16,57 16,55 388,60 388,62 "/>
     </g>
     <g>
      <polygon id="228" class="fil102" points="16,56 16,53 388,58 388,60 "/>
     </g>
     <g>
      <polygon id="229" class="fil102" points="16,54 16,52 388,57 388,59 "/>
     </g>
     <g>
      <polygon id="230" class="fil102" points="16,53 16,51 388,55 388,57 "/>
     </g>
     <g>
      <polygon id="231" class="fil102" points="16,51 16,49 388,54 388,56 "/>
     </g>
     <g>
      <polygon id="232" class="fil102" points="16,50 16,48 388,52 388,55 "/>
     </g>
     <g>
      <polygon id="233" class="fil102" points="16,48 16,46 388,51 388,53 "/>
     </g>
     <g>
      <polygon id="234" class="fil102" points="16,47 16,45 388,50 388,52 "/>
     </g>
     <g>
      <polygon id="235" class="fil102" points="16,46 16,43 388,48 388,50 "/>
     </g>
     <g>
      <polygon id="236" class="fil102" points="16,44 16,42 388,47 388,49 "/>
     </g>
     <g>
      <polygon id="237" class="fil102" points="16,43 16,41 388,45 388,47 "/>
     </g>
     <g>
      <polygon id="238" class="fil102" points="16,41 16,39 388,44 388,46 "/>
     </g>
     <g>
      <polygon id="239" class="fil102" points="16,40 16,38 388,42 388,45 "/>
     </g>
     <g>
      <polygon id="240" class="fil103" points="16,38 16,36 388,41 388,43 "/>
     </g>
     <g>
      <polygon id="241" class="fil103" points="16,37 16,35 388,40 388,42 "/>
     </g>
     <g>
      <polygon id="242" class="fil103" points="16,35 16,33 388,38 388,40 "/>
     </g>
     <g>
      <polygon id="243" class="fil103" points="16,34 16,32 388,37 388,39 "/>
     </g>
     <g>
      <polygon id="244" class="fil103" points="16,33 16,30 388,35 388,37 "/>
     </g>
     <g>
      <polygon id="245" class="fil103" points="16,31 16,29 388,34 388,36 "/>
     </g>
     <g>
      <polygon id="246" class="fil0" points="16,30 16,28 388,32 388,35 "/>
     </g>
     <g>
      <polygon id="247" class="fil0" points="16,28 16,26 388,31 388,33 "/>
     </g>
     <g>
      <polygon id="248" class="fil0" points="16,27 17,25 388,29 388,32 "/>
     </g>
     <g>
      <polygon id="249" class="fil0" points="16,25 17,23 388,28 388,30 "/>
     </g>
     <g>
      <polygon id="250" class="fil0" points="17,24 17,22 388,27 388,29 "/>
     </g>
     <g>
      <polygon id="251" class="fil0" points="17,23 17,20 388,25 388,27 "/>
     </g>
     <g>
      <polygon id="252" class="fil0" points="17,21 17,19 388,24 388,26 "/>
     </g>
     <g>
      <polygon id="253" class="fil0" points="17,20 17,18 388,22 388,24 "/>
     </g>
     <g>
      <polygon id="254" class="fil0" points="17,18 17,16 388,21 388,23 "/>
     </g>
     <g>
      <polygon id="255" class="fil0" points="17,17 17,12 388,17 388,22 "/>
     </g>
    </g>
   </g>
   <g>
    <circle class="fil104" cx="200" cy="80" r="50"/>
    <path class="fil104" d="M200 146c49,0 89,40 89,89l-178 0c0,-49 40,-89 89,-89z"/>
   </g>
   <polygon class="fil105" points="160,313 152,313 139,291 139,313 131,313 131,281 141,281 153,300 153,281 160,281 "/>
   <path id="1" class="fil105" d="M183 307l0 -5c-1,0 -2,0 -3,0 -2,0 -3,1 -3,1 -1,0 -2,0 -2,1 0,0 -1,1 -1,2 0,0 0,1 1,1 0,0 0,1 0,1 1,0 1,0 1,1 1,0 2,0 3,0 0,0 1,0 2,-1 1,0 1,0 2,-1zm0 4c0,0 -1,1 -2,1 0,0 -1,1 -1,1 -1,0 -2,1 -3,1 -1,0 -1,0 -2,0 -3,0 -5,-1 -6,-2 -2,-2 -3,-3 -3,-6 0,-1 1,-3 2,-4 0,-1 2,-2 3,-3 1,0 3,-1 5,-1 3,0 5,-1 7,-1l0 0c0,-1 -1,-2 -2,-3 -1,0 -2,0 -4,0 -2,0 -3,0 -5,0 -1,1 -2,1 -3,1l0 0 0 -5c0,-1 2,-1 4,-1 1,-1 3,-1 5,-1 5,0 8,1 10,2 2,2 3,4 3,7l0 16 -8 0 0 -2z"/>
   <path id="2" class="fil105" d="M222 296l0 17 -8 0 0 -12c0,-1 0,-2 0,-3 0,-1 0,-1 -1,-2 0,0 0,-1 -1,-1 0,0 -1,0 -2,0 -1,0 -2,0 -2,0 -1,0 -2,1 -2,1l0 17 -8 0 0 -24 8 0 0 3c1,-1 2,-2 4,-3 1,0 2,-1 4,-1 1,0 3,1 4,1 1,1 2,2 3,4 1,-2 3,-3 4,-3 2,-1 3,-2 5,-2 2,0 4,1 6,3 1,1 2,4 2,7l0 15 -8 0 0 -12c0,-1 0,-2 0,-3 0,-1 0,-1 -1,-2 0,0 0,-1 -1,-1 0,0 -1,0 -2,0 -1,0 -1,0 -2,0 -1,0 -1,1 -2,1z"/>
   <path id="3" class="fil105" d="M269 303l-18 0c0,2 1,3 2,4 2,1 4,2 6,2 2,0 3,-1 5,-1 1,-1 3,-2 4,-2l0 0 0 6c-1,1 -3,1 -5,2 -1,0 -3,0 -5,0 -5,0 -8,-1 -11,-3 -3,-2 -4,-6 -4,-10 0,-4 1,-7 4,-9 2,-3 6,-4 10,-4 4,0 7,1 9,3 2,2 3,5 3,9l0 3zm-8 -5c0,-2 0,-3 -1,-4 -1,0 -2,-1 -4,-1 -1,0 -2,1 -3,1 -1,1 -2,2 -2,4l10 0z"/>
  </g>
 </g>
</svg>
