<?xml version="1.0" encoding="UTF-8"?>
<!DOCTYPE svg PUBLIC "-//W3C//DTD SVG 1.1//EN" "http://www.w3.org/Graphics/SVG/1.1/DTD/svg11.dtd">
<!-- Creator: CorelDRAW 2019 (64-Bit) -->
<svg xmlns="http://www.w3.org/2000/svg" xml:space="preserve" width="1.89333in" height="1.66667in" version="1.1" style="shape-rendering:geometricPrecision; text-rendering:geometricPrecision; image-rendering:optimizeQuality; fill-rule:evenodd; clip-rule:evenodd"
viewBox="0 0 1893.33 1666.66"
 xmlns:xlink="http://www.w3.org/1999/xlink"
 xmlns:xodm="http://www.corel.com/coreldraw/odm/2003">
 <defs>
  <style type="text/css">
   <![CDATA[
    .fil0 {fill:none}
    .fil4 {fill:#1B96FE}
    .fil1 {fill:#1D99FF}
    .fil5 {fill:#BADDFD}
    .fil19 {fill:#FABEBE}
    .fil2 {fill:white}
    .fil7 {fill:url(#id0)}
    .fil6 {fill:url(#id1)}
    .fil3 {fill:url(#id2)}
    .fil11 {fill:url(#id3)}
    .fil8 {fill:url(#id4)}
    .fil9 {fill:url(#id5)}
    .fil15 {fill:url(#id6)}
    .fil17 {fill:url(#id7)}
    .fil13 {fill:url(#id8)}
    .fil10 {fill:url(#id9)}
    .fil12 {fill:url(#id10)}
    .fil14 {fill:url(#id11)}
    .fil16 {fill:url(#id12)}
    .fil18 {fill:url(#id13)}
   ]]>
  </style>
  <linearGradient id="id0" gradientUnits="userSpaceOnUse" x1="737.43" y1="888.34" x2="1223.25" y2="888.34">
   <stop offset="0" style="stop-opacity:1; stop-color:#1B98FF"/>
   <stop offset="1" style="stop-opacity:1; stop-color:#84C2FF"/>
  </linearGradient>
  <linearGradient id="id1" gradientUnits="userSpaceOnUse" xlink:href="#id0" x1="435.36" y1="1127.29" x2="660.81" y2="1127.29">
  </linearGradient>
  <linearGradient id="id2" gradientUnits="userSpaceOnUse" xlink:href="#id0" x1="309.29" y1="533.01" x2="318.29" y2="533.01">
  </linearGradient>
  <linearGradient id="id3" gradientUnits="userSpaceOnUse" xlink:href="#id0" x1="909.51" y1="1178.89" x2="1455.69" y2="1178.89">
  </linearGradient>
  <linearGradient id="id4" gradientUnits="userSpaceOnUse" xlink:href="#id0" x1="909.51" y1="1067.14" x2="1092.59" y2="1067.14">
  </linearGradient>
  <linearGradient id="id5" gradientUnits="userSpaceOnUse" xlink:href="#id0" x1="909.51" y1="1103.08" x2="1092.59" y2="1103.08">
  </linearGradient>
  <linearGradient id="id6" gradientUnits="userSpaceOnUse" xlink:href="#id0" x1="458.61" y1="1389.35" x2="577.08" y2="1389.35">
  </linearGradient>
  <linearGradient id="id7" gradientUnits="userSpaceOnUse" xlink:href="#id0" x1="1281.17" y1="994.32" x2="1331.04" y2="994.32">
  </linearGradient>
  <linearGradient id="id8" gradientUnits="userSpaceOnUse" xlink:href="#id0" x1="909.51" y1="1389.35" x2="1455.7" y2="1389.35">
  </linearGradient>
  <linearGradient id="id9" gradientUnits="userSpaceOnUse" xlink:href="#id0" x1="909.51" y1="1140.49" x2="1038.47" y2="1140.49">
  </linearGradient>
  <linearGradient id="id10" gradientUnits="userSpaceOnUse" xlink:href="#id0" x1="909.51" y1="1351.44" x2="1038.47" y2="1351.44">
  </linearGradient>
  <linearGradient id="id11" gradientUnits="userSpaceOnUse" xlink:href="#id0" x1="458.61" y1="1351.44" x2="695.55" y2="1351.44">
  </linearGradient>
  <linearGradient id="id12" gradientUnits="userSpaceOnUse" xlink:href="#id0" x1="1402.37" y1="993.32" x2="1399.61" y2="1075.12">
  </linearGradient>
  <linearGradient id="id13" gradientUnits="userSpaceOnUse" xlink:href="#id0" x1="1325.05" y1="966.88" x2="1328.16" y2="1075.12">
  </linearGradient>
 </defs>
 <g id="Layer_x0020_1">
  <metadata id="CorelCorpID_0Corel-Layer"/>
  <rect class="fil0" x="-0.01" y="-0" width="1893.33" height="1666.66"/>
  <g id="_1685826712016">
   <g>
    <path class="fil1" d="M330.34 74.65l1232.99 0c22.07,0 40.07,18.01 40.07,40.07l0 1418.37c0,22.31 -17.11,42.24 -40.07,42.24l-1232.99 0c-22.95,0 -40.07,-19.93 -40.07,-42.24l0 -1418.37c0,-22.06 18.01,-40.07 40.07,-40.07z"/>
    <path class="fil2" d="M330.34 82.8l1232.99 0c17.56,0 31.92,14.36 31.92,31.92l0 656.34 0 50.48 0 711.55c0,18.75 -14.36,34.08 -31.92,34.08l-1232.99 0c-17.56,0 -31.92,-15.33 -31.92,-34.08l0 -711.55 0 -50.48 0 -656.34c0,-17.56 14.35,-31.92 31.92,-31.92z"/>
    <path class="fil3" d="M318.29 821.55l-8.99 0 0 -572.69c2.65,-1.83 5.68,-3.31 8.99,-4.37l0 577.06z"/>
    <g>
     <circle class="fil4" cx="346.28" cy="869.45" r="15.96"/>
     <circle class="fil4" cx="1547.37" cy="869.45" r="15.96"/>
    </g>
    <g>
     <circle class="fil4" cx="346.28" cy="1519.31" r="15.96"/>
     <circle class="fil4" cx="1547.37" cy="1519.31" r="15.96"/>
    </g>
    <rect class="fil5" x="496.2" y="1003.1" width="225.45" height="285.3" rx="31.92" ry="31.92"/>
    <rect class="fil6" x="435.36" y="984.64" width="225.45" height="285.3" rx="31.92" ry="31.92"/>
    <circle class="fil2" cx="548.08" cy="1095.34" r="55.36"/>
    <path class="fil2" d="M532.62 1169.66l30.93 0c35.11,0 63.85,28.73 63.85,63.85l0 13.47 -158.62 0 0 -13.47c0,-35.12 28.73,-63.85 63.85,-63.85z"/>
    <rect class="fil7" x="737.43" y="867.89" width="485.82" height="40.9" rx="63.85" ry="63.85"/>
    <rect class="fil0" x="909.51" y="1056.92" width="183.08" height="20.45" rx="24.06" ry="31.92"/>
    <rect class="fil8" x="909.51" y="1056.92" width="183.08" height="20.45" rx="24.06" ry="31.92"/>
    <rect class="fil9" x="909.51" y="1092.86" width="183.08" height="20.45" rx="24.06" ry="31.92"/>
    <rect class="fil10" x="909.51" y="1130.26" width="128.97" height="20.45" rx="16.95" ry="31.92"/>
    <rect class="fil11" x="909.51" y="1168.66" width="546.19" height="20.45" rx="71.78" ry="31.92"/>
    <rect class="fil12" x="909.51" y="1341.22" width="128.97" height="20.45" rx="16.95" ry="31.92"/>
    <rect class="fil13" x="909.51" y="1379.12" width="546.19" height="20.45" rx="71.78" ry="31.92"/>
    <rect class="fil14" x="458.61" y="1341.22" width="236.94" height="20.45" rx="31.14" ry="31.92"/>
    <rect class="fil15" x="458.61" y="1379.12" width="118.47" height="20.45" rx="15.57" ry="31.92"/>
    <rect class="fil5" x="1256.72" y="951.42" width="204.01" height="123.7" rx="12.77" ry="12.77"/>
    <path class="fil16" d="M1452.89 1074.13c-1.52,0.63 -3.18,0.99 -4.93,0.99l-96.71 0 13.71 -21.94 37.41 -59.85 37.43 59.85 13.1 20.96z"/>
    <circle class="fil17" cx="1306.11" cy="994.32" r="24.94"/>
    <path class="fil18" d="M1386.84 1075.12l-117.35 0c-1.97,0 -3.83,-0.45 -5.5,-1.25l26.9 -47.13 34.16 -59.85 34.18 59.85 27.61 48.38z"/>
    <rect class="fil1" x="289.92" y="819.42" width="1313.14" height="8.03"/>
   </g>
   <path class="fil19" d="M260.02 1617.71c-50.61,-16.28 -101.22,-32.67 -151.94,-48.58 -14.88,-4.66 -13.2,-13.26 -6.33,-19.99 16.07,-15.76 31.69,-32 47.37,-48.13 14.59,-15.01 14,-17.12 22.44,-36.35 11.66,-26.54 25.74,-69.42 53.6,-105.33 28.01,-36.11 67.02,-59.59 108.16,-61.43 28.83,-1.29 52.17,7.05 75.36,23.3 11.47,-7.62 39.73,-46.82 66.15,-85.3 22.14,-32.26 43,-64.04 51.57,-76.3 8.98,-9.31 17.95,-18.62 26.93,-27.93 18.85,-0.43 15.25,19.99 6.74,38.46 -7.21,15.61 -15.84,25.15 -26.27,38.09 -34.65,66.09 -73.86,139.08 -101.06,208.29 -5.96,15.11 -22.93,44.57 -3.66,56.68 13.54,8.54 79.69,-18.31 97.72,-25.06 14.23,-7.48 21.06,-11.35 27.13,-12.98 17.07,-4.57 34.57,0.02 45.7,13.48 -17.46,10.97 -33.92,19.96 -51.37,30.93 -54.94,34.78 -110.46,68.58 -165.72,102.8 -60.82,37.67 -52.93,57.74 -122.52,35.35z"/>
  </g>
 </g>
</svg>
