<?xml version="1.0" encoding="utf-8"?>
<!-- Generator: Adobe Illustrator 16.0.0, SVG Export Plug-In . SVG Version: 6.00 Build 0)  -->
<!DOCTYPE svg PUBLIC "-//W3C//DTD SVG 1.1//EN" "http://www.w3.org/Graphics/SVG/1.1/DTD/svg11.dtd">
<svg version="1.1" xmlns="http://www.w3.org/2000/svg" xmlns:xlink="http://www.w3.org/1999/xlink" x="0px" y="0px"
	 width="52.496px" height="50.315px" viewBox="0 0 52.496 50.315" enable-background="new 0 0 52.496 50.315" xml:space="preserve">
<g id="Layer_1" display="none">
</g>
<g id="Layer_2">
</g>
<g id="Layer_6">
</g>
<g id="Layer_8" display="none">
</g>
<g id="Layer_9" display="none">
</g>
<g id="Layer_11" display="none">
</g>
<g id="Layer_5" display="none">
</g>
<g id="Layer_14" display="none">
</g>
<g id="Layer_15">
</g>
<g id="Layer_4">
</g>
<g id="Layer_12">
</g>
<g id="Layer_13">
</g>
<g id="Layer_7">
</g>
<g id="Layer_3">
</g>
<g id="Layer_10" display="none">
</g>
<g id="Layer_19">
</g>
<g id="Layer_17">
</g>
<g id="Layer_21">
</g>
<g id="Layer_16">
</g>
<g id="Layer_18">
	<g>
		<path fill="#E6E7E8" d="M3.477,44.285c0,0,0.939,3.475,3.332,3.314c2.393-0.161,6.269-0.655,8.088,0.367
			c1.818,1.023,6.107,2.036,8.734,1.559c2.625-0.477,3.909-2.256,6.726-2.56c2.817-0.303,15.459-0.093,15.937-0.705
			c0.477-0.61,0-1.313-0.596-1.976c-0.597-0.663-2.445-1.052-4.413-1.155s-8.468-0.492-10.556,0
			c-2.087,0.492-4.771,0.728-6.083,0.729c-1.312,0.001-4.591-1.094-6.798-1.44s-7.901-1.007-9.944-1.034
			C5.862,41.356,3.835,41.847,3.477,44.285z"/>
		<g>
			<path fill="#E9EBF5" d="M6.122,44.399L5.97,45.22c0,0,0.135,0.307,0.661,0.357c0.525,0.052,1.271-0.068,1.66-0.222
				c0.39-0.153,1.119-0.209,1.119-0.209l0.763-0.013c0,0,0.966-0.013,1.245-0.063c0.28-0.051,0.546-0.218,0.725-0.397
				c0.177-0.18,0.158-0.388,0.158-0.388l-3.004,0.183c0,0-1.868,0.025-1.906,0.025S6.122,44.399,6.122,44.399z"/>
			<path fill="#95A6AD" d="M6.41,43.05l-0.289,1.35c0,0,0.136,0.409,0.577,0.479c0.44,0.068,1.508-0.172,1.508-0.172
				s1.152-0.034,1.694-0.051c0.542-0.018,1.813-0.018,1.813-0.018s0.559-0.034,0.626-0.494c0.068-0.462-0.644-0.491-0.779-0.528
				c-0.135-0.035-0.61,0-0.61,0s-0.441-0.317-0.542-0.334c-0.102-0.018-0.831-0.453-0.831-0.453l-0.071,0.394l-1.043,0.385
				c0,0-0.235,0.215-0.599,0.208c-0.363-0.006-0.597-0.197-0.677-0.266c-0.08-0.067-0.19-0.271-0.19-0.271s-0.087,0.019-0.112-0.058
				c-0.025-0.077-0.083-0.174-0.127-0.199C6.715,42.995,6.461,42.991,6.41,43.05z"/>
			<path fill="#E9EBF5" d="M16.427,46.67c0,0-0.156,0.5-0.219,0.666s0.114,0.615,0.546,0.743c0.432,0.127,0.976,0.127,1.219,0.154
				c0.242,0.025,1.208,0.075,1.208,0.075l1.042,0.142c0,0,0.661,0.09,1.181,0.076c0.521-0.012,0.954-0.102,1.233-0.229
				c0.28-0.128,0.47-0.244,0.47-0.244s0.191-0.14,0.241-0.281c0.051-0.141,0.166-0.346,0.089-0.436
				c-0.076-0.089-0.102-0.218-0.102-0.218s0.012,0.551-0.229,0.666c-0.241,0.116-0.534,0.218-1.208,0.231
				c-0.673,0.012-1.321,0.076-1.55-0.039c-0.229-0.115-1.118-0.384-1.283-0.448c-0.166-0.063-0.75-0.038-0.839-0.051
				s-1.144-0.026-1.36-0.167c-0.216-0.141-0.317-0.244-0.368-0.346C16.45,46.862,16.427,46.67,16.427,46.67z"/>
			<path fill="#95A6AD" d="M17.202,45.305c0,0-0.32,0.108-0.481,0.285c-0.161,0.176-0.293,0.943-0.293,0.943s-0.042,0.33,0.185,0.58
				c0.227,0.249,0.397,0.27,0.65,0.296c0.252,0.025,1.13,0.055,1.425,0.076c0.294,0.022,0.908,0.214,1.143,0.297
				c0.235,0.08,0.467,0.274,1.008,0.262c0.542-0.012,1.229,0.066,1.727-0.085c0.498-0.153,0.657-0.176,0.707-0.389
				s0.076-0.411,0.076-0.411s-0.078-0.156-0.366-0.232c-0.288-0.078-0.822-0.197-0.966-0.248s-0.296-0.111-0.296-0.111
				s-0.229-0.222-0.466-0.341c-0.237-0.119-0.568-0.204-0.678-0.299c-0.11-0.094-0.374-0.164-0.517-0.338
				c-0.145-0.174-0.22-0.26-0.229-0.37c-0.009-0.112,0.042-0.258-0.085-0.331c-0.127-0.07-0.089-0.038-0.089-0.038
				s-0.275,0.24-0.394,0.411c-0.118,0.171-0.576,0.479-0.576,0.479s-0.109,0.212-0.245,0.317c-0.136,0.104-0.225,0.211-0.468,0.203
				c-0.243-0.006-0.428,0.058-0.65-0.181c-0.221-0.238-0.17-0.298-0.188-0.383c-0.017-0.086,0.128-0.218,0.128-0.218
				S17.276,45.33,17.202,45.305"/>
			<path fill="#F9CC9B" d="M7.338,42.713l-0.305,0.486c0,0-0.115,0.103,0.076,0.282c0.19,0.18,0.559,0.358,0.559,0.358l0.496-0.063
				l0.406-0.23l0.241-0.371l-1.359-0.756L7.338,42.713z"/>
			<path fill="#F9CC9B" d="M17.322,45.382l-0.187,0.315c0,0,0.119,0.41,0.331,0.504s0.72,0.051,0.72,0.051l0.624-0.479l-0.082-0.196
				l-1.33-0.357L17.322,45.382z"/>
			<path fill="#234D5B" d="M12.307,30.467l0.634,2.612l0.145,1.708c0,0-0.305,0.169-0.39,0.408c-0.084,0.24-0.39,0.615-0.39,0.615
				l-0.521,0.615c0,0-0.089-0.321-0.631,0.197c-0.542,0.52-3.728,5.505-3.728,5.505l-0.203,0.649c0,0,0.678,0.718,1.186,0.82
				c0.509,0.102,1.051-0.239,1.051-0.239l0.204-0.581l-0.034-0.342l1.458-1.297l2.169-2.562c0,0,1.016-1.024,1.592-1.195
				s0.915-0.649,1.085-1.093c0.169-0.444,0.494-2.324,0.494-2.324l-0.223-4.198l-0.34-1.28l-4.303,0.973L12.307,30.467z"/>
			<path fill="#243E4F" d="M11.561,29.459c0,0,0.847,1.178,1.228,1.613c0.382,0.435,1.627,1.203,2.11,1.614
				c0.483,0.409,2.762,2.305,2.762,2.305s1.076,0.667,1.533,1.179c0.458,0.512,0.432,0.998,0.432,0.998s-0.356,0.359-0.432,0.564
				c-0.076,0.204-1.533,5.352-1.533,5.352s-0.373,0.462-0.297,0.718c0.077,0.256-0.05,0.871-0.05,0.871l-0.127,0.716
				c0,0,0.331,0.436,0.687,0.462c0.355,0.025,0.838,0,0.838,0l0.686-0.538l0.458-0.819c0,0,0.229-0.384,0.355-0.717
				c0.127-0.333,1.245-2.843,1.245-2.843l1.754-4.354c0,0,0.127-0.333-0.178-1.229c-0.305-0.896-2.694-4.328-2.694-4.328
				l-1.147-1.28l-0.861-0.743l-0.669-0.875v-0.524l-0.208-0.214L11.561,29.459z"/>
			<g>
				<path fill="#F9CC9B" d="M8.812,14.412c0,0-0.161-0.846-0.385-1.037c-0.225-0.192-0.758-0.743-1.025-0.961
					c-0.267-0.218-0.61-0.947-0.432-1.562c0.178-0.615,0.928-1.641,1.754-1.883c0.826-0.243,2.097,0.09,2.313,0.257
					c0.216,0.166,0.64,0.746,0.741,0.844c0.102,0.098,0.254,0.256,0.275,0.363c0.021,0.107-0.017,0.358,0.068,0.422
					c0.084,0.064,0.483,0.433,0.483,0.433s0.262,0.251,0.211,0.438c-0.051,0.188-0.187,0.163-0.187,0.163s-0.076-0.009-0.084,0.094
					c-0.009,0.103,0.042,0.162,0,0.315c-0.043,0.153-0.085,0.095-0.153,0.111c-0.068,0.018-0.254,0.102-0.229,0.136
					c0.025,0.035,0.059,0.062,0.221,0.068c0.161,0.01,0.22,0.069,0.229,0.163s-0.059,0.17,0.017,0.29
					c0.076,0.119,0.2,0.103,0.193,0.383c-0.006,0.283-0.328,0.514-0.532,0.685c-0.203,0.17-0.491,0.134-0.517,0.159
					c-0.025,0.026-0.061,0.406-0.061,0.406l-0.024,0.186L8.812,14.412z"/>
				<path fill="#F1B279" d="M9.087,11.506c0,0-0.161-0.217-0.262-0.177s-0.305,0.244-0.195,0.483
					C8.74,12.052,8.85,12.12,8.96,12.214c0.11,0.094,0.364,0.188,0.398,0.163c0.034-0.026,0.042-0.206,0.068-0.223
					c0.025-0.018,0.2-0.068,0.227-0.077s-0.049-0.085-0.1-0.162c-0.051-0.077-0.102-0.478-0.212-0.282
					c-0.11,0.197-0.017,0.257-0.025,0.333c-0.008,0.077,0.025,0.188-0.102,0.154c-0.127-0.034-0.263-0.052-0.356-0.214
					c-0.093-0.162-0.102-0.29-0.093-0.341c0.008-0.052,0.059-0.223,0.144-0.094c0.084,0.127,0.184,0.265,0.219,0.179
					C9.164,11.565,9.087,11.506,9.087,11.506z"/>
				<path d="M11.002,10.702c0,0,0.373-0.281,0.449-0.299c0.076-0.018,0.305,0.043,0.331,0.043c0.025,0,0.186,0,0.186,0
					s0.11,0.104,0,0.18s-0.229,0.137-0.339,0.076c-0.11-0.06-0.152-0.084-0.212-0.076C11.358,10.635,11.002,10.702,11.002,10.702z"
					/>
				<path d="M12.056,10.509c0,0,0.054-0.016,0.089-0.019s0.044,0.153,0,0.179c-0.044,0.026-0.089,0.026-0.089,0.026
					S12.075,10.545,12.056,10.509z"/>
				<path d="M11.258,10.916c0,0,0.254-0.013,0.35,0c0.095,0.013,0.165,0.096,0.165,0.096s-0.083,0.052-0.178,0.039
					C11.5,11.037,11.5,11.037,11.5,11.037s0.166,0.026,0.166,0.077c0,0.052,0.006,0.129-0.156,0.058
					c-0.162-0.069-0.359-0.262-0.359-0.262L11.258,10.916z"/>
				<path fill="#FFFFFF" d="M12.453,12.408l-0.044,0.121l-0.246,0.001C12.163,12.53,12.261,12.413,12.453,12.408z"/>
				<path fill="#FFFFFF" d="M12.401,12.529l0.011,0.088c0,0-0.083,0.007-0.149-0.016c-0.065-0.023-0.101-0.056-0.101-0.056V12.53
					L12.401,12.529z"/>
				<path d="M8.075,13.118c0,0-0.546-0.486-0.75-0.704c-0.204-0.218-0.458-0.436-0.496-0.69c-0.038-0.257-0.013-0.552,0-0.718
					c0.012-0.167,0.051-0.409,0.051-0.409l0.08-0.32c0,0,0.034-0.206,0.11-0.257c0.076-0.052,0.025-0.238,0.025-0.238l0.153-0.214
					c0,0,0.085-0.115,0.161-0.256C7.486,9.17,7.719,9.124,7.719,9.124s0.19-0.218,0.216-0.258C7.96,8.828,8.291,8.688,8.291,8.688
					l0.136-0.086c0,0,0.068,0.008,0.246-0.017c0.178-0.026,0.419,0,0.419,0l0.279-0.091h0.282c0,0,0.43-0.076,0.607-0.063
					c0.179,0.013,0.433,0.063,0.433,0.063s0.318-0.012,0.369,0.013c0.051,0.026,0.406,0.193,0.445,0.193
					c0.038,0,0.19,0.281,0.19,0.281l-0.254-0.071c0,0-0.025,0.052,0.013,0.077c0.038,0.026-0.292-0.134-0.216-0.096
					s0.203,0.218,0.203,0.218l0.166,0.358l-0.254-0.052l-0.178-0.038c0,0-0.292,0.051-0.343,0.116c-0.051,0.063-0.165,0-0.419,0.052
					c-0.254,0.05-0.584,0.152-0.635,0.179C9.727,9.75,9.701,9.981,9.727,10.135c0.025,0.153,0.127,0.462,0.14,0.513
					c0.013,0.052,0.178,0.717,0.178,0.78c0,0.064,0,0.27,0.039,0.309c0.038,0.037,0.089,0.293,0.089,0.293l-0.165,0.064
					c0,0-0.343-0.32-0.483-0.474c-0.14-0.153-0.419-0.397-0.419-0.397S8.914,11.21,8.736,11.21s-0.343,0.296-0.229,0.615
					c0.114,0.32,0.444,0.576,0.546,0.641c0.102,0.063,0.102,0.32,0.14,0.346c0.038,0.025,0.253,0.346,0.253,0.396
					c0,0.052,0.102,0.308,0.115,0.423S9.56,14.077,9.56,14.077l-0.873,0.15c0,0-0.078-0.725-0.345-0.917
					C8.075,13.118,8.075,13.118,8.075,13.118z"/>
			</g>
			<path fill="#0692B2" d="M8.579,14.979c-0.163,0.16-0.136,0.257-0.221,0.888c-0.084,0.632-0.118,1.686-0.135,2.396
				c-0.017,0.713,0.101,2.13,0.355,2.982c0.254,0.854,0.83,2.562,0.83,2.562s0.542,1.759,0.729,2.339
				c0.187,0.581,0.661,2.101,0.746,2.254c0.085,0.154,0.187,0.12,0.187,0.12s0.135,0.323,0.203,0.495
				c0.068,0.17,0.237,0.376,0.288,0.443c0.051,0.068,0.525-0.103,0.636-0.085c0.11,0.018,0.5,0.084,0.805,0.102
				c0.305,0.019,0.712-0.033,1.373-0.222c0.661-0.188,1.017-0.512,1.338-0.683c0.323-0.171,0.813-0.512,1.102-0.667
				c0.289-0.152,0.848-0.306,0.848-0.306s-0.22-0.752-0.322-0.837c-0.102-0.086,0.017-1.35-0.118-1.69
				c-0.136-0.342-0.797-1.826-0.797-1.826s-1.525-3.997-1.83-4.662c-0.305-0.666-0.932-1.793-1.22-2.187
				c-0.288-0.392-0.661-0.699-0.661-0.699l-0.118-0.018l0.135-0.324l-0.22-0.171l-0.313,0.388c0,0-1.517-0.678-2.059-0.832
				C9.596,14.588,8.893,14.675,8.579,14.979z"/>
			<path fill="#79D0EE" d="M11.821,20.573c0,0-0.633-0.796-0.861-0.976c-0.229-0.179-0.788-0.396-1.105-0.946
				c-0.318-0.552-0.28-1.678,0.267-2.279c0.546-0.603,1.245-0.923,1.665-0.756c0.419,0.166,1.919,1.689,1.919,1.689
				s0.527,1.302,0.724,1.514c0.196,0.211,0.312,0.335,0.312,0.335s-0.213,0.09-0.793,0.343s-1.869,1.459-1.869,1.459L11.821,20.573z
				"/>
			<path fill="#303A43" d="M12.078,20.956c0,0,1.162-1.075,1.757-1.383c0.595-0.309,0.938-0.385,0.938-0.385l-0.382-0.41
				l-1.449,0.858l-1.156,0.884L12.078,20.956z"/>
			<path fill="#303A43" d="M8.426,14.288c0,0,0.068,0.137,0.102,0.265s0.029,0.449,0.029,0.449s0.318-0.239,0.538-0.279
				c0.221-0.039,0.834-0.089,1.47,0.166c0.635,0.254,1.632,0.684,1.632,0.684l0.348-0.431c0,0-1.525-0.854-1.941-0.981
				c-0.415-0.128-0.94-0.111-1.313-0.051C8.918,14.169,8.426,14.288,8.426,14.288z"/>
			<g>
				<path fill="#F9CC9B" d="M19.191,22.022c0,0,0.538-0.106,0.88-0.183c0.343-0.077,0.551-0.118,0.708-0.201
					c0.157-0.081,0.348-0.081,0.538-0.094c0.191-0.013,0.636-0.191,0.941-0.525c0.305-0.333,0.546-0.461,0.763-0.653
					c0.216-0.19,0.19-0.319,0.241-0.409s0.043-0.21,0-0.281c-0.043-0.074-0.043-0.074-0.043-0.074s-0.771,0.342-1.076,0.509
					s-0.944,0.677-1.533,1.037c-0.589,0.358-0.998,0.639-0.998,0.639L19.191,22.022"/>
				<path fill="#F1B279" d="M23.296,19.714c0,0-0.099,0.233-0.276,0.367c-0.178,0.133-0.356,0.296-0.496,0.368
					c-0.14,0.071-0.292,0.02-0.559,0.288c-0.267,0.27-0.546,0.475-0.94,0.539c-0.394,0.063-0.85,0.148-0.85,0.148l-0.916,0.581
					c0,0,0.509-0.1,0.762-0.154c0.253-0.058,0.506-0.14,0.758-0.213c0.252-0.071,0.466-0.018,0.743-0.142
					c0.276-0.123,0.537-0.216,0.85-0.541s0.462-0.411,0.607-0.555c0.144-0.143,0.193-0.15,0.283-0.444
					C23.35,19.662,23.296,19.714,23.296,19.714z"/>
				<path fill="#F9CC9B" d="M12.078,20.888c0,0,0.746,0.836,1.161,1.195c0.415,0.358,1.161,0.913,1.509,1.144
					c0.347,0.23,0.635,0.546,0.906,0.529c0.271-0.018,0.416-0.171,0.72-0.333c0.305-0.162,0.577-0.281,0.949-0.436
					c0.373-0.153,1.262-0.64,1.847-0.938c0.584-0.299,1.296-0.861,1.533-0.999c0.237-0.137,0.517-0.29,0.517-0.29
					s0.322-0.171,0.534-0.366c0.212-0.197,0.491-0.359,0.678-0.429c0.187-0.068,0.831-0.357,0.941-0.46s0.102-0.068,0.118-0.213
					c0.017-0.146,0.051-0.325,0.178-0.572c0.126-0.247,0.195-0.419,0.178-0.538c-0.017-0.12-0.085-0.18-0.127-0.257
					c-0.042-0.076-0.102,0.068-0.148,0.107c-0.047,0.038-0.567,0.32-0.567,0.32l-0.813,0.362c0,0-0.551,0.277-0.661,0.333
					c-0.11,0.056-0.187,0.141-0.269,0.257c-0.083,0.114-0.445,0.409-0.623,0.498c-0.178,0.091-1.208,0.475-1.709,0.597
					c-0.502,0.121-2.458,0.62-2.458,0.62s-0.458,0.122-0.635,0.129c-0.178,0.006-0.255-0.064-0.299-0.11
					c-0.044-0.044-0.102-0.051-0.203-0.172c-0.102-0.121-0.667-1.696-0.667-1.696l-0.058-0.02c0,0-0.883,0.455-1.328,0.756
					S12.078,20.888,12.078,20.888z"/>
				<path fill="#F1B279" d="M17.161,20.844c0,0,1.217-0.265,1.875-0.473c0.659-0.208,1.2-0.399,1.376-0.473
					c0.176-0.071,0.492-0.242,0.492-0.242c0.127-0.078,0.216-0.211,0.273-0.281c0.049-0.063,0.286-0.314,0.396-0.369
					c0.133-0.063,0.499-0.256,0.582-0.295c0.083-0.038,0.289-0.098,0.334-0.13c0.044-0.031,0.435-0.192,0.537-0.244
					c0.102-0.051,0.305-0.18,0.419-0.218s0.216,0.026,0.178,0.147c-0.038,0.122-0.159,0.141-0.241,0.237
					c-0.083,0.096-0.242,0.23-0.35,0.339c-0.108,0.109-0.254,0.236-0.324,0.288c-0.07,0.052-0.229,0.288-0.229,0.288
					s-0.4,0.212-0.635,0.269"/>
				<path fill="#F1B279" d="M20.779,19.803c-0.254,0.137-1.373,0.58-2.034,0.735c-0.661,0.152-2.583,0.556-2.583,0.556"/>
				<path fill="#F1B279" d="M16.832,23.197c0,0,1.804-0.961,2.414-1.332c0.61-0.371,1.69-1.021,1.69-1.021s0.677-0.396,0.83-0.523
					c0.154-0.129,0.421-0.239,0.421-0.239s-0.631,0.485-0.815,0.589c-0.183,0.106-1.417,0.891-1.618,1.028
					c-0.201,0.139-1.438,0.796-1.438,0.796L16.832,23.197z"/>
				<path fill="#F1B279" d="M22.105,20.144c0,0,0.633-0.302,0.819-0.393c0.186-0.091,0.291-0.149,0.291-0.149l0.098-0.055
					c0,0-0.308,0.104-0.617,0.24c-0.31,0.138-0.732,0.402-0.732,0.402v0.061L22.105,20.144z"/>
			</g>
		</g>
		<g>
			<polygon fill="#F1F2F2" stroke="#ADACB2" stroke-width="0.5" stroke-miterlimit="10" points="36.295,10.379 14.399,14.331 
				16.121,8.408 38.019,4.456 			"/>
			<polygon fill="#F1F2F2" stroke="#ADACB2" stroke-width="0.5" stroke-miterlimit="10" points="14.399,14.331 14.539,15.107 
				14.807,15.06 14.897,15.557 14.629,15.604 15.132,18.392 15.421,18.458 15.289,18.733 15.4,19.354 15.495,19.639 15.593,20.184 
				15.702,20.781 37.464,16.852 36.295,10.379 			"/>
			
				<rect x="14.294" y="12.349" transform="matrix(0.9841 -0.1776 0.1776 0.9841 -1.8612 4.7178)" fill="#D1D3D4" stroke="#ADACB2" stroke-width="0.5" stroke-miterlimit="10" width="22.251" height="0.812"/>
			
				<rect x="14.496" y="13.624" transform="matrix(0.9841 -0.1777 0.1777 0.9841 -2.0576 4.7727)" fill="#FFFFFF" stroke="#ADACB2" stroke-width="0.5" stroke-miterlimit="10" width="22.251" height="0.504"/>
			
				<rect x="14.586" y="14.12" transform="matrix(0.9841 -0.1776 0.1776 0.9841 -2.144 4.7953)" fill="#E6E7E8" stroke="#ADACB2" stroke-width="0.5" stroke-miterlimit="10" width="22.251" height="0.504"/>
			
				<rect x="14.676" y="14.617" transform="matrix(0.9841 -0.1776 0.1776 0.9841 -2.2303 4.818)" fill="#F1F2F2" stroke="#ADACB2" stroke-width="0.5" stroke-miterlimit="10" width="22.25" height="0.503"/>
			
				<rect x="14.765" y="15.111" transform="matrix(0.9841 -0.1777 0.1777 0.9841 -2.3176 4.8442)" fill="#FFFFFF" stroke="#ADACB2" stroke-width="0.5" stroke-miterlimit="10" width="22.25" height="0.504"/>
			
				<rect x="14.86" y="15.64" transform="matrix(0.9841 -0.1776 0.1776 0.9841 -2.4096 4.8683)" fill="#FFFFFF" stroke="#ADACB2" stroke-width="0.5" stroke-miterlimit="10" width="22.25" height="0.504"/>
			
				<rect x="15.164" y="16.812" transform="matrix(0.9841 -0.1776 0.1776 0.9841 -2.6129 4.9408)" fill="#FFFFFF" stroke="#ADACB2" stroke-width="0.5" stroke-miterlimit="10" width="22.251" height="0.504"/>
			
				<rect x="15.362" y="17.908" transform="matrix(0.9841 -0.1776 0.1776 0.9841 -2.8043 4.9934)" fill="#FFFFFF" stroke="#ADACB2" stroke-width="0.5" stroke-miterlimit="10" width="22.25" height="0.503"/>
			<path fill="#ADACB2" stroke="#ADACB2" stroke-width="0.5" stroke-miterlimit="10" d="M28.249,7.554l-0.426,0.112l-0.469,0.429
				l-0.291-0.229v0.001l-0.469,0.427l-0.29-0.228h0l-0.469,0.428l-0.291-0.229l-0.219,0.059c-0.347-0.628-1.08-0.97-1.805-0.784
				c-0.865,0.221-1.39,1.105-1.172,1.977c0.218,0.871,1.095,1.398,1.96,1.178c0.621-0.158,1.066-0.658,1.188-1.25l2.97-0.781
				l0.48-0.71L28.249,7.554z M24.049,9.658c-0.297,0.075-0.598-0.105-0.672-0.403c-0.075-0.299,0.105-0.603,0.401-0.679
				c0.297-0.075,0.598,0.105,0.672,0.404C24.525,9.279,24.345,9.582,24.049,9.658z"/>
			<polygon fill="#F1F2F2" stroke="#ADACB2" stroke-width="0.5" stroke-miterlimit="10" points="37.464,16.852 39.583,13.128 
				38.019,4.456 36.295,10.379 			"/>
			<polygon fill="#D1D3D4" stroke="#ADACB2" stroke-width="0.5" stroke-miterlimit="10" points="36.44,11.178 38.195,5.439 
				38.019,4.456 36.295,10.379 			"/>
			<polygon fill="#FFFFFF" stroke="#ADACB2" stroke-width="0.5" stroke-miterlimit="10" points="36.525,11.652 38.313,6.087 
				38.425,6.713 36.615,12.147 			"/>
			<polygon fill="#FFFFFF" stroke="#ADACB2" stroke-width="0.5" stroke-miterlimit="10" points="36.803,13.188 38.759,8.561 
				38.872,9.187 36.892,13.684 			"/>
			<polygon fill="#FFFFFF" stroke="#ADACB2" stroke-width="0.5" stroke-miterlimit="10" points="36.889,13.667 38.886,9.264 
				38.999,9.891 36.979,14.164 			"/>
			<polygon fill="#FFFFFF" stroke="#ADACB2" stroke-width="0.5" stroke-miterlimit="10" points="37.104,14.855 39.086,10.377 
				39.2,11.003 37.193,15.353 			"/>
			<polygon fill="#FFFFFF" stroke="#ADACB2" stroke-width="0.5" stroke-miterlimit="10" points="37.293,15.906 39.337,11.766 
				39.45,12.391 37.383,16.401 			"/>
			<polygon fill="#E6E7E8" stroke="#ADACB2" stroke-width="0.5" stroke-miterlimit="10" points="36.705,12.645 38.615,7.763 
				38.452,6.861 36.615,12.147 			"/>
			<polygon stroke="#ADACB2" stroke-width="0.5" stroke-miterlimit="10" points="14.808,12.755 36.615,8.884 36.525,9.589 
				14.629,13.541 			"/>
		</g>
		<g>
			<path fill="#D8D8D9" d="M43.968,21.188c0.162,0.374-0.009,0.808-0.379,0.97l-15.502,6.773c-0.371,0.163-0.802-0.009-0.963-0.383
				l-3.43-7.95c-0.161-0.374,0.008-0.809,0.379-0.97l15.502-6.774c0.372-0.162,0.803,0.009,0.964,0.384L43.968,21.188z"/>
			<path fill="#ADACB2" d="M38.043,17.066l-0.651,0.318l-0.616,0.841l-0.542-0.271h-0.001l-0.616,0.84l-0.542-0.273l-0.001,0.001
				l-0.616,0.841l-0.542-0.273l-0.333,0.164c-0.761-0.898-2.053-1.21-3.16-0.678c-1.321,0.636-1.88,2.231-1.248,3.563
				s2.216,1.896,3.537,1.262c0.948-0.456,1.503-1.406,1.508-2.398l4.529-2.22l0.544-1.298L38.043,17.066z M31.96,21.814
				c-0.453,0.218-0.996,0.025-1.213-0.432c-0.217-0.457-0.025-1.004,0.428-1.222c0.453-0.218,0.996-0.024,1.213,0.432
				C32.604,21.05,32.413,21.597,31.96,21.814z"/>
			<polygon points="26.599,27.424 43.437,20.095 43.768,20.863 26.978,28.304 			"/>
		</g>
		<g>
			<path fill="#D8D8D9" d="M44.888,25.703c0.271,0.304,0.246,0.771-0.055,1.041L32.244,38.046c-0.301,0.271-0.765,0.242-1.035-0.062
				l-5.755-6.47c-0.271-0.305-0.246-0.77,0.056-1.04l12.589-11.303c0.301-0.271,0.765-0.244,1.036,0.062L44.888,25.703z"/>
			<path fill="#ADACB2" d="M37.968,23.651l-0.518,0.507l-0.32,0.993l-0.601-0.09v0.001l-0.321,0.993l-0.601-0.091v0.001
				l-0.321,0.992l-0.601-0.09l-0.265,0.26c-1.005-0.614-2.329-0.502-3.213,0.352c-1.055,1.019-1.084,2.708-0.064,3.773
				c1.019,1.066,2.7,1.104,3.754,0.087c0.757-0.73,0.986-1.807,0.679-2.75l3.601-3.531l0.108-1.403L37.968,23.651z M33.686,30.071
				c-0.362,0.349-0.938,0.336-1.287-0.029c-0.35-0.366-0.34-0.945,0.021-1.295c0.362-0.349,0.938-0.336,1.287,0.029
				C34.057,29.143,34.047,29.723,33.686,30.071z"/>
			<polygon points="30.358,37.081 44.041,24.832 44.596,25.457 30.995,37.797 			"/>
		</g>
		<path fill="#ED1C24" d="M50.656,12.714c0,0.105-0.085,0.189-0.191,0.189l0,0c-0.104,0-0.19-0.084-0.19-0.189v-1.133
			c0-0.104,0.085-0.19,0.19-0.19l0,0c0.105,0,0.191,0.086,0.191,0.19V12.714z"/>
		<path fill="#ED1C24" d="M49.899,12.338c-0.105,0-0.19-0.085-0.19-0.19l0,0c0-0.104,0.085-0.19,0.19-0.19h1.132
			c0.105,0,0.19,0.086,0.19,0.19l0,0c0,0.105-0.085,0.19-0.19,0.19H49.899z"/>
		<path fill="#00AEEF" d="M45.787,4.412c0,0.1-0.081,0.18-0.18,0.18l0,0c-0.1,0-0.18-0.08-0.18-0.18V3.343
			c0-0.1,0.081-0.181,0.18-0.181l0,0c0.099,0,0.18,0.081,0.18,0.181V4.412z"/>
		<path fill="#00AEEF" d="M45.072,4.057c-0.099,0-0.18-0.081-0.18-0.18l0,0c0-0.1,0.081-0.18,0.18-0.18h1.07
			c0.099,0,0.179,0.08,0.179,0.18l0,0c0,0.099-0.08,0.18-0.179,0.18H45.072z"/>
		<path fill="#2B3990" d="M48.892,24.063c0,0.074-0.061,0.135-0.135,0.135l0,0c-0.075,0-0.135-0.061-0.135-0.135v-0.805
			c0-0.075,0.061-0.135,0.135-0.135l0,0c0.074,0,0.135,0.06,0.135,0.135V24.063z"/>
		<path fill="#2B3990" d="M48.354,23.796c-0.075,0-0.135-0.061-0.135-0.135l0,0c0-0.075,0.06-0.135,0.135-0.135h0.804
			c0.075,0,0.135,0.06,0.135,0.135l0,0c0,0.074-0.06,0.135-0.135,0.135H48.354z"/>
		<path fill="#FFF200" d="M28.079,2.757c0,0.101-0.083,0.183-0.184,0.183l0,0c-0.101,0-0.183-0.082-0.183-0.183V1.668
			c0-0.101,0.083-0.183,0.183-0.183l0,0c0.101,0,0.184,0.082,0.184,0.183V2.757z"/>
		<path fill="#FFF200" d="M27.351,2.395c-0.101,0-0.183-0.082-0.183-0.183l0,0c0-0.102,0.082-0.183,0.183-0.183h1.089
			c0.101,0,0.183,0.081,0.183,0.183l0,0c0,0.101-0.083,0.183-0.183,0.183H27.351z"/>
		<path fill="#7F3F98" d="M5.806,29.03c0,0.101-0.082,0.183-0.183,0.183l0,0c-0.101,0-0.183-0.082-0.183-0.183v-1.088
			c0-0.103,0.082-0.184,0.183-0.184l0,0c0.101,0,0.183,0.081,0.183,0.184V29.03z"/>
		<path fill="#7F3F98" d="M5.079,28.67c-0.101,0-0.183-0.082-0.183-0.184l0,0c0-0.102,0.082-0.183,0.183-0.183h1.088
			c0.102,0,0.183,0.081,0.183,0.183l0,0c0,0.102-0.082,0.184-0.183,0.184H5.079z"/>
		<path fill="#00AEEF" d="M16.176,5.673c-0.07,0.069-0.182,0.069-0.251,0l0,0c-0.07-0.069-0.07-0.182,0-0.251l0.747-0.747
			c0.069-0.069,0.182-0.069,0.251,0l0,0c0.069,0.069,0.069,0.183,0,0.251L16.176,5.673z"/>
		<path fill="#00AEEF" d="M15.925,4.926c-0.07-0.068-0.07-0.182,0-0.251l0,0c0.069-0.069,0.181-0.069,0.251,0l0.747,0.747
			c0.069,0.069,0.069,0.182,0,0.251l0,0c-0.069,0.069-0.182,0.069-0.251,0L15.925,4.926z"/>
		<path fill="#009444" d="M6.976,4.05c-0.069,0.069-0.182,0.069-0.251,0l0,0c-0.07-0.068-0.07-0.181,0-0.251l0.747-0.748
			c0.069-0.069,0.182-0.069,0.251,0l0,0c0.07,0.07,0.07,0.183,0,0.252L6.976,4.05z"/>
		<path fill="#009444" d="M6.725,3.303c-0.07-0.069-0.07-0.182,0-0.252l0,0c0.069-0.069,0.182-0.069,0.251,0l0.747,0.748
			c0.07,0.07,0.07,0.183,0,0.251l0,0c-0.069,0.069-0.182,0.069-0.251,0L6.725,3.303z"/>
		<path fill="#F26522" d="M2.217,16.9c-0.069,0.069-0.182,0.069-0.251,0l0,0c-0.07-0.068-0.07-0.182,0-0.251l0.747-0.747
			c0.069-0.069,0.182-0.069,0.251,0l0,0c0.069,0.069,0.069,0.183,0,0.251L2.217,16.9z"/>
		<path fill="#F26522" d="M1.966,16.153c-0.07-0.068-0.07-0.182,0-0.251l0,0c0.069-0.069,0.182-0.069,0.251,0l0.747,0.747
			c0.069,0.069,0.069,0.183,0,0.251l0,0c-0.069,0.069-0.182,0.069-0.251,0L1.966,16.153z"/>
	</g>
</g>
<g id="Layer_20">
</g>
<g id="Layer_22">
</g>
</svg>
