<?xml version="1.0" encoding="utf-8"?>
<!-- Generator: Adobe Illustrator 16.0.0, SVG Export Plug-In . SVG Version: 6.00 Build 0)  -->
<!DOCTYPE svg PUBLIC "-//W3C//DTD SVG 1.1//EN" "http://www.w3.org/Graphics/SVG/1.1/DTD/svg11.dtd">
<svg version="1.1" xmlns="http://www.w3.org/2000/svg" xmlns:xlink="http://www.w3.org/1999/xlink" x="0px" y="0px"
	 width="52.496px" height="50.315px" viewBox="0 0 52.496 50.315" enable-background="new 0 0 52.496 50.315" xml:space="preserve">
<g id="Layer_2">
</g>
<g id="Layer_3">
</g>
<g id="Layer_18">
</g>
<g id="Layer_7">
	<g>
		<path fill="#DCEFF9" d="M47.208,41.328c0,0-6.792,7.729-19.375,5.22C15.249,44.039,9.995,39.466,6.056,34.65
			C2.117,29.836,0.482,23.673,1.1,20.218c0.618-3.454,3.64-6.371,6.277-6.868s9.455,0.398,14.071,0.312
			c4.617-0.086,11.623-3.021,14.679-3.91c3.058-0.89,8.896,1.356,11.385,6.443c2.489,5.089,3.602,18.181,1.994,21.693
			C47.897,41.399,47.208,41.328,47.208,41.328z"/>
		<circle fill="#ACD7EC" cx="35.255" cy="40.977" r="0.53"/>
		<circle fill="#ACD7EC" cx="45.838" cy="17.404" r="0.53"/>
		<circle fill="#ACD7EC" cx="46.788" cy="6.691" r="0.53"/>
		<circle fill="#ACD7EC" cx="42.541" cy="47.579" r="0.53"/>
		<circle fill="#ACD7EC" cx="20.708" cy="6.692" r="0.53"/>
		<circle fill="#ACD7EC" cx="10.136" cy="46.141" r="0.53"/>
		<circle fill="#ACD7EC" cx="26.977" cy="35.145" r="0.53"/>
		<circle fill="#ACD7EC" cx="8.975" cy="11.198" r="0.53"/>
		<g>
			<polygon fill="#7F7F7F" points="4.211,17.114 4.211,42.569 14.204,42.569 14.204,24.648 			"/>
			<path d="M4.211,17.114c0,0-0.295,3.524,4.138,6.175c4.096,2.452,5.855,1.359,5.855,1.359s0.356-2.644-2.947-5.254
				C6.67,15.771,4.211,17.114,4.211,17.114z"/>
			<polygon fill="#D1D3D4" points="10.146,19.104 8.144,20.303 9.299,21.424 11.302,20.15 			"/>
			<polygon fill="#414042" points="7.82,20.549 7.113,20.997 8.269,22.119 8.976,21.594 			"/>
			<rect x="13.546" y="26.89" width="0.658" height="0.709"/>
			<path d="M15.327,42.983c0,0.663-0.708,1.2-1.582,1.2H4.67c-0.875,0-1.583-0.537-1.583-1.2l0,0c0-0.659,0.708-1.197,1.583-1.197
				h9.075C14.619,41.786,15.327,42.324,15.327,42.983L15.327,42.983z"/>
		</g>
		<g>
			<g>
				<g>
					<g>
						<circle fill="#E6E7E8" cx="30.713" cy="4.723" r="0.184"/>
						<path fill="#E6E7E8" d="M35.034,5.592c0-0.613-0.497-1.11-1.11-1.11h-2.722c-0.061,0.094-0.063,0.245-0.063,0.245
							c-0.032,0.414-0.415,0.4-0.415,0.4c-0.421,0-0.432-0.387-0.432-0.387c-0.011-0.123-0.07-0.206-0.124-0.259h-2.715
							c-0.613,0-1.11,0.497-1.11,1.11V21.91c0,0.256,0.197,0.53,0.438,0.611c0.197,0.065,0.437,0.102,0.671,0.102h6.47
							c0.235,0,0.474-0.036,0.671-0.102c0.242-0.081,0.439-0.355,0.439-0.611V5.592z"/>
					</g>
					<g>
						<path fill="#A83023" d="M35.458,8.024V7.412v-1.82c0-0.847-0.688-1.535-1.535-1.535h-6.47c-0.847,0-1.535,0.688-1.535,1.535
							v16.574c0,0.846,0.688,1.535,1.535,1.535h6.47c0.847,0,1.535-0.689,1.535-1.535v-8.614v-0.708V11.57v-1.213V8.024z
							 M30.713,4.539c0.102,0,0.184,0.082,0.184,0.184s-0.083,0.185-0.184,0.185s-0.184-0.083-0.184-0.185
							S30.612,4.539,30.713,4.539z M34.595,22.521c-0.197,0.065-0.437,0.102-0.672,0.102h-6.47c-0.235,0-0.474-0.036-0.671-0.102
							c-0.242-0.081-0.438-0.355-0.438-0.611V5.592c0-0.613,0.497-1.11,1.11-1.11h2.715c0.054,0.053,0.112,0.136,0.123,0.259
							c0,0,0.01,0.387,0.432,0.387c0,0,0.383,0.014,0.415-0.4c0,0,0.001-0.151,0.063-0.245h2.722c0.613,0,1.11,0.497,1.11,1.11
							V21.91C35.034,22.166,34.836,22.44,34.595,22.521z"/>
					</g>
					<path fill="#333333" d="M35.539,12.924c0.044,0,0.08-0.036,0.08-0.08V11.57c0-0.045-0.036-0.08-0.08-0.08
						s-0.081,0.035-0.081,0.08v1.273C35.458,12.888,35.495,12.924,35.539,12.924z"/>
					<path fill="#333333" d="M35.539,10.438c0.044,0,0.08-0.036,0.08-0.08V8.024c0-0.044-0.036-0.08-0.08-0.08
						s-0.081,0.036-0.081,0.08v2.333C35.458,10.401,35.495,10.438,35.539,10.438z"/>
				</g>
				<g>
					<rect x="26.507" y="6.18" fill="#FFFFFF" width="8.334" height="8.522"/>
				</g>
				<g>
					<g>
						<rect x="29.603" y="6.554" fill="#3B3B3B" width="0.31" height="0.311"/>
						<rect x="30.223" y="6.554" fill="#3B3B3B" width="0.31" height="0.311"/>
						<rect x="30.533" y="6.554" fill="#3B3B3B" width="0.31" height="0.311"/>
						<rect x="31.153" y="6.554" fill="#3B3B3B" width="0.31" height="0.311"/>
						<rect x="31.462" y="6.554" fill="#3B3B3B" width="0.31" height="0.311"/>
						<rect x="28.982" y="6.864" fill="#3B3B3B" width="0.31" height="0.31"/>
						<rect x="29.913" y="6.864" fill="#3B3B3B" width="0.31" height="0.31"/>
						<rect x="30.223" y="6.864" fill="#3B3B3B" width="0.31" height="0.31"/>
						<rect x="31.153" y="6.864" fill="#3B3B3B" width="0.31" height="0.31"/>
						<rect x="31.462" y="6.864" fill="#3B3B3B" width="0.31" height="0.31"/>
						<rect x="32.083" y="6.864" fill="#3B3B3B" width="0.31" height="0.31"/>
						<rect x="29.292" y="7.174" fill="#3B3B3B" width="0.31" height="0.311"/>
						<rect x="29.603" y="7.174" fill="#3B3B3B" width="0.31" height="0.311"/>
						<rect x="29.913" y="7.174" fill="#3B3B3B" width="0.31" height="0.311"/>
						<rect x="30.223" y="7.174" fill="#3B3B3B" width="0.31" height="0.311"/>
						<rect x="30.843" y="7.174" fill="#3B3B3B" width="0.31" height="0.311"/>
						<rect x="31.153" y="7.174" fill="#3B3B3B" width="0.31" height="0.311"/>
						<rect x="31.462" y="7.174" fill="#3B3B3B" width="0.31" height="0.311"/>
						<rect x="31.772" y="7.174" fill="#3B3B3B" width="0.31" height="0.311"/>
						<rect x="29.292" y="7.484" fill="#3B3B3B" width="0.31" height="0.311"/>
						<rect x="29.603" y="7.484" fill="#3B3B3B" width="0.31" height="0.311"/>
						<rect x="29.913" y="7.484" fill="#3B3B3B" width="0.31" height="0.311"/>
						<rect x="30.533" y="7.484" fill="#3B3B3B" width="0.31" height="0.311"/>
						<rect x="30.843" y="7.484" fill="#3B3B3B" width="0.31" height="0.311"/>
						<rect x="31.772" y="7.484" fill="#3B3B3B" width="0.31" height="0.311"/>
						<rect x="29.603" y="7.795" fill="#3B3B3B" width="0.31" height="0.31"/>
						<rect x="29.913" y="7.795" fill="#3B3B3B" width="0.31" height="0.31"/>
						<rect x="30.223" y="7.795" fill="#3B3B3B" width="0.31" height="0.31"/>
						<rect x="30.533" y="8.104" fill="#3B3B3B" width="0.31" height="0.31"/>
						<rect x="30.843" y="7.795" fill="#3B3B3B" width="0.31" height="0.31"/>
						<rect x="31.462" y="7.795" fill="#3B3B3B" width="0.31" height="0.31"/>
						<rect x="31.772" y="7.795" fill="#3B3B3B" width="0.31" height="0.31"/>
						<rect x="29.292" y="8.104" fill="#3B3B3B" width="0.31" height="0.31"/>
						<rect x="29.603" y="8.104" fill="#3B3B3B" width="0.31" height="0.31"/>
						<rect x="31.462" y="8.104" fill="#3B3B3B" width="0.31" height="0.31"/>
						<rect x="31.772" y="8.104" fill="#3B3B3B" width="0.31" height="0.31"/>
						<rect x="29.292" y="8.414" fill="#3B3B3B" width="0.31" height="0.311"/>
						<rect x="28.982" y="6.554" fill="#3B3B3B" width="0.31" height="0.311"/>
						<rect x="28.982" y="7.174" fill="#3B3B3B" width="0.31" height="0.311"/>
						<rect x="28.982" y="7.794" fill="#3B3B3B" width="0.31" height="0.311"/>
						<rect x="28.982" y="8.414" fill="#3B3B3B" width="0.31" height="0.311"/>
						<rect x="29.603" y="8.414" fill="#3B3B3B" width="0.31" height="0.311"/>
						<rect x="30.223" y="8.414" fill="#3B3B3B" width="0.31" height="0.311"/>
						<rect x="30.533" y="8.414" fill="#3B3B3B" width="0.31" height="0.311"/>
						<rect x="30.843" y="8.414" fill="#3B3B3B" width="0.31" height="0.311"/>
						<rect x="31.153" y="8.414" fill="#3B3B3B" width="0.31" height="0.311"/>
						<rect x="31.462" y="8.414" fill="#3B3B3B" width="0.31" height="0.311"/>
						<rect x="31.772" y="8.414" fill="#3B3B3B" width="0.31" height="0.311"/>
						<rect x="29.292" y="8.725" fill="#3B3B3B" width="0.31" height="0.31"/>
						<rect x="29.603" y="8.725" fill="#3B3B3B" width="0.31" height="0.31"/>
						<rect x="29.913" y="8.725" fill="#3B3B3B" width="0.31" height="0.31"/>
						<rect x="30.843" y="8.725" fill="#3B3B3B" width="0.31" height="0.31"/>
						<rect x="31.462" y="8.725" fill="#3B3B3B" width="0.31" height="0.31"/>
						<rect x="32.083" y="6.554" fill="#3B3B3B" width="0.31" height="0.311"/>
						<rect x="32.083" y="7.174" fill="#3B3B3B" width="0.31" height="0.311"/>
						<rect x="32.083" y="7.795" fill="#3B3B3B" width="0.31" height="0.31"/>
						<rect x="32.083" y="8.725" fill="#3B3B3B" width="0.31" height="0.31"/>
						<rect x="29.292" y="9.035" fill="#3B3B3B" width="0.31" height="0.31"/>
						<rect x="30.843" y="9.035" fill="#3B3B3B" width="0.31" height="0.31"/>
						<rect x="29.292" y="9.345" fill="#3B3B3B" width="0.31" height="0.311"/>
						<rect x="30.223" y="9.345" fill="#3B3B3B" width="0.31" height="0.311"/>
						<rect x="30.533" y="8.725" fill="#3B3B3B" width="0.31" height="0.31"/>
						<rect x="30.843" y="9.345" fill="#3B3B3B" width="0.31" height="0.311"/>
						<rect x="31.153" y="9.345" fill="#3B3B3B" width="0.31" height="0.311"/>
						<rect x="31.462" y="9.345" fill="#3B3B3B" width="0.31" height="0.311"/>
						<rect x="29.292" y="9.655" fill="#3B3B3B" width="0.31" height="0.31"/>
						<rect x="30.223" y="9.655" fill="#3B3B3B" width="0.31" height="0.31"/>
						<rect x="30.843" y="9.655" fill="#3B3B3B" width="0.31" height="0.31"/>
						<rect x="31.462" y="9.655" fill="#3B3B3B" width="0.31" height="0.31"/>
						<rect x="30.533" y="9.965" fill="#3B3B3B" width="0.31" height="0.311"/>
						<rect x="31.153" y="9.965" fill="#3B3B3B" width="0.31" height="0.311"/>
						<rect x="31.462" y="9.965" fill="#3B3B3B" width="0.31" height="0.311"/>
						<rect x="29.292" y="10.275" fill="#3B3B3B" width="0.31" height="0.31"/>
						<rect x="29.913" y="10.275" fill="#3B3B3B" width="0.31" height="0.31"/>
						<rect x="30.223" y="10.275" fill="#3B3B3B" width="0.31" height="0.31"/>
						<rect x="30.843" y="10.275" fill="#3B3B3B" width="0.31" height="0.31"/>
						<rect x="31.153" y="10.275" fill="#3B3B3B" width="0.31" height="0.31"/>
						<rect x="33.943" y="7.484" fill="#3B3B3B" width="0.31" height="0.31"/>
						<rect x="33.633" y="7.794" fill="#3B3B3B" width="0.31" height="0.311"/>
						<rect x="33.943" y="7.794" fill="#3B3B3B" width="0.31" height="0.311"/>
						<rect x="33.633" y="8.104" fill="#3B3B3B" width="0.31" height="0.311"/>
						<rect x="33.943" y="8.104" fill="#3B3B3B" width="0.31" height="0.311"/>
						<rect x="33.633" y="8.415" fill="#3B3B3B" width="0.31" height="0.31"/>
						<rect x="33.943" y="7.174" fill="#3B3B3B" width="0.31" height="0.311"/>
						<rect x="33.943" y="6.503" fill="#3B3B3B" width="0.31" height="0.31"/>
						<rect x="33.633" y="6.864" fill="#3B3B3B" width="0.31" height="0.31"/>
						<rect x="33.633" y="7.174" fill="#3B3B3B" width="0.31" height="0.311"/>
						<rect x="33.322" y="6.864" fill="#3B3B3B" width="0.311" height="0.31"/>
						<rect x="33.322" y="7.174" fill="#3B3B3B" width="0.311" height="0.311"/>
						<rect x="33.013" y="6.864" fill="#3B3B3B" width="0.31" height="0.31"/>
						<rect x="33.323" y="8.104" fill="#3B3B3B" width="0.31" height="0.31"/>
						<rect x="33.013" y="7.794" fill="#3B3B3B" width="0.31" height="0.311"/>
						<rect x="33.013" y="8.104" fill="#3B3B3B" width="0.31" height="0.31"/>
						<rect x="32.702" y="7.794" fill="#3B3B3B" width="0.311" height="0.311"/>
						<rect x="32.702" y="8.104" fill="#3B3B3B" width="0.311" height="0.31"/>
						<rect x="32.393" y="7.794" fill="#3B3B3B" width="0.31" height="0.311"/>
						<rect x="31.772" y="10.275" fill="#3B3B3B" width="0.31" height="0.31"/>
						<rect x="29.292" y="10.585" fill="#3B3B3B" width="0.31" height="0.31"/>
						<rect x="29.913" y="10.585" fill="#3B3B3B" width="0.31" height="0.31"/>
						<rect x="31.462" y="10.585" fill="#3B3B3B" width="0.31" height="0.31"/>
						<rect x="31.772" y="10.585" fill="#3B3B3B" width="0.31" height="0.31"/>
						<rect x="29.603" y="10.895" fill="#3B3B3B" width="0.31" height="0.311"/>
						<rect x="30.223" y="10.895" fill="#3B3B3B" width="0.31" height="0.311"/>
						<rect x="31.153" y="10.895" fill="#3B3B3B" width="0.31" height="0.311"/>
						<rect x="31.462" y="10.895" fill="#3B3B3B" width="0.31" height="0.311"/>
						<rect x="31.772" y="10.895" fill="#3B3B3B" width="0.31" height="0.311"/>
						<rect x="29.292" y="11.205" fill="#3B3B3B" width="0.31" height="0.31"/>
						<rect x="29.913" y="11.205" fill="#3B3B3B" width="0.31" height="0.31"/>
						<rect x="29.292" y="11.515" fill="#3B3B3B" width="0.31" height="0.311"/>
						<rect x="29.603" y="11.515" fill="#3B3B3B" width="0.31" height="0.311"/>
						<rect x="29.913" y="11.515" fill="#3B3B3B" width="0.31" height="0.311"/>
						<rect x="30.533" y="11.515" fill="#3B3B3B" width="0.31" height="0.311"/>
						<rect x="30.843" y="11.515" fill="#3B3B3B" width="0.31" height="0.311"/>
						<rect x="27.432" y="9.035" fill="#3B3B3B" width="0.311" height="0.31"/>
						<rect x="27.743" y="9.035" fill="#3B3B3B" width="0.31" height="0.31"/>
						<rect x="28.053" y="9.035" fill="#3B3B3B" width="0.31" height="0.31"/>
						<rect x="28.362" y="9.035" fill="#3B3B3B" width="0.31" height="0.31"/>
						<rect x="28.672" y="9.035" fill="#3B3B3B" width="0.31" height="0.31"/>
						<rect x="28.982" y="9.035" fill="#3B3B3B" width="0.31" height="0.31"/>
						<rect x="27.743" y="9.345" fill="#3B3B3B" width="0.31" height="0.311"/>
						<rect x="28.053" y="9.345" fill="#3B3B3B" width="0.31" height="0.311"/>
						<rect x="28.362" y="9.345" fill="#3B3B3B" width="0.31" height="0.311"/>
						<rect x="28.672" y="9.345" fill="#3B3B3B" width="0.31" height="0.311"/>
						<rect x="27.432" y="9.655" fill="#3B3B3B" width="0.311" height="0.31"/>
						<rect x="28.362" y="9.655" fill="#3B3B3B" width="0.31" height="0.31"/>
						<rect x="28.982" y="9.655" fill="#3B3B3B" width="0.31" height="0.31"/>
						<rect x="27.432" y="9.965" fill="#3B3B3B" width="0.311" height="0.311"/>
						<rect x="27.743" y="9.965" fill="#3B3B3B" width="0.31" height="0.311"/>
						<rect x="28.053" y="9.965" fill="#3B3B3B" width="0.31" height="0.311"/>
						<rect x="27.743" y="10.275" fill="#3B3B3B" width="0.31" height="0.31"/>
						<rect x="28.053" y="10.275" fill="#3B3B3B" width="0.31" height="0.31"/>
						<rect x="28.362" y="10.275" fill="#3B3B3B" width="0.31" height="0.31"/>
						<rect x="28.672" y="10.275" fill="#3B3B3B" width="0.31" height="0.31"/>
						<rect x="28.982" y="10.275" fill="#3B3B3B" width="0.31" height="0.31"/>
						<rect x="27.432" y="10.585" fill="#3B3B3B" width="0.311" height="0.31"/>
						<rect x="28.053" y="10.585" fill="#3B3B3B" width="0.31" height="0.31"/>
						<rect x="28.362" y="10.585" fill="#3B3B3B" width="0.31" height="0.31"/>
						<rect x="27.432" y="10.895" fill="#3B3B3B" width="0.311" height="0.311"/>
						<rect x="28.053" y="10.895" fill="#3B3B3B" width="0.31" height="0.311"/>
						<rect x="28.672" y="10.895" fill="#3B3B3B" width="0.31" height="0.311"/>
						<rect x="28.982" y="10.895" fill="#3B3B3B" width="0.31" height="0.311"/>
						<rect x="27.432" y="11.205" fill="#3B3B3B" width="0.311" height="0.31"/>
						<rect x="27.743" y="11.205" fill="#3B3B3B" width="0.31" height="0.31"/>
						<rect x="28.362" y="11.205" fill="#3B3B3B" width="0.31" height="0.31"/>
						<rect x="28.672" y="11.205" fill="#3B3B3B" width="0.31" height="0.31"/>
						<rect x="27.432" y="11.515" fill="#3B3B3B" width="0.311" height="0.311"/>
						<rect x="27.743" y="11.515" fill="#3B3B3B" width="0.31" height="0.311"/>
						<rect x="26.813" y="9.035" fill="#3B3B3B" width="0.31" height="0.31"/>
						<rect x="27.123" y="9.035" fill="#3B3B3B" width="0.31" height="0.31"/>
						<rect x="27.432" y="8.725" fill="#3B3B3B" width="0.311" height="0.31"/>
						<rect x="28.053" y="8.725" fill="#3B3B3B" width="0.31" height="0.31"/>
						<rect x="28.982" y="8.725" fill="#3B3B3B" width="0.31" height="0.31"/>
						<rect x="26.813" y="8.725" fill="#3B3B3B" width="0.31" height="0.31"/>
						<rect x="26.813" y="6.864" fill="#3B3B3B" width="0.31" height="0.31"/>
						<rect x="26.813" y="9.345" fill="#3B3B3B" width="0.31" height="0.311"/>
						<rect x="27.123" y="9.655" fill="#3B3B3B" width="0.31" height="0.31"/>
						<rect x="26.813" y="9.965" fill="#3B3B3B" width="0.31" height="0.311"/>
						<rect x="27.123" y="9.965" fill="#3B3B3B" width="0.31" height="0.311"/>
						<rect x="26.813" y="10.275" fill="#3B3B3B" width="0.31" height="0.31"/>
						<rect x="26.813" y="11.205" fill="#3B3B3B" width="0.31" height="0.31"/>
						<rect x="26.813" y="6.554" fill="#3B3B3B" width="0.31" height="0.311"/>
						<rect x="27.123" y="6.554" fill="#3B3B3B" width="0.31" height="0.311"/>
						<rect x="27.123" y="11.205" fill="#3B3B3B" width="0.31" height="0.31"/>
						<rect x="26.813" y="11.515" fill="#3B3B3B" width="0.31" height="0.311"/>
						<rect x="27.123" y="11.515" fill="#3B3B3B" width="0.31" height="0.311"/>
						<rect x="28.053" y="11.515" fill="#3B3B3B" width="0.31" height="0.311"/>
						<rect x="28.362" y="11.515" fill="#3B3B3B" width="0.31" height="0.311"/>
						<rect x="28.672" y="11.515" fill="#3B3B3B" width="0.31" height="0.311"/>
						<rect x="28.982" y="11.515" fill="#3B3B3B" width="0.31" height="0.311"/>
						<rect x="27.743" y="11.825" fill="#3B3B3B" width="0.31" height="0.31"/>
						<rect x="26.813" y="11.825" fill="#3B3B3B" width="0.31" height="0.31"/>
						<rect x="28.053" y="11.825" fill="#3B3B3B" width="0.31" height="0.31"/>
						<rect x="26.828" y="13.442" fill="#3B3B3B" width="0.31" height="0.311"/>
						<rect x="26.828" y="12.822" fill="#3B3B3B" width="0.31" height="0.311"/>
						<rect x="27.138" y="13.442" fill="#3B3B3B" width="0.31" height="0.311"/>
						<rect x="27.138" y="13.133" fill="#3B3B3B" width="0.31" height="0.31"/>
						<rect x="27.448" y="13.442" fill="#3B3B3B" width="0.31" height="0.311"/>
						<rect x="27.448" y="13.133" fill="#3B3B3B" width="0.31" height="0.31"/>
						<rect x="27.138" y="14.063" fill="#3B3B3B" width="0.31" height="0.311"/>
						<rect x="27.138" y="13.753" fill="#3B3B3B" width="0.31" height="0.31"/>
						<rect x="27.448" y="14.063" fill="#3B3B3B" width="0.31" height="0.311"/>
						<rect x="27.448" y="13.753" fill="#3B3B3B" width="0.31" height="0.31"/>
						<rect x="27.448" y="12.822" fill="#3B3B3B" width="0.31" height="0.311"/>
						<rect x="27.758" y="13.133" fill="#3B3B3B" width="0.31" height="0.31"/>
						<rect x="27.758" y="14.063" fill="#3B3B3B" width="0.31" height="0.311"/>
						<rect x="27.758" y="12.822" fill="#3B3B3B" width="0.31" height="0.311"/>
						<rect x="28.207" y="12.822" fill="#3B3B3B" width="0.311" height="0.311"/>
						<rect x="27.758" y="12.29" fill="#3B3B3B" width="0.31" height="0.31"/>
						<rect x="28.982" y="11.825" fill="#3B3B3B" width="0.31" height="0.31"/>
						<rect x="31.462" y="11.515" fill="#3B3B3B" width="0.31" height="0.311"/>
						<rect x="32.083" y="9.035" fill="#3B3B3B" width="0.31" height="0.31"/>
						<rect x="32.393" y="9.035" fill="#3B3B3B" width="0.31" height="0.31"/>
						<rect x="32.703" y="9.035" fill="#3B3B3B" width="0.31" height="0.31"/>
						<rect x="33.013" y="9.035" fill="#3B3B3B" width="0.31" height="0.31"/>
						<rect x="33.323" y="9.035" fill="#3B3B3B" width="0.31" height="0.31"/>
						<rect x="33.633" y="9.035" fill="#3B3B3B" width="0.31" height="0.31"/>
						<rect x="32.083" y="9.345" fill="#3B3B3B" width="0.31" height="0.311"/>
						<rect x="32.393" y="9.345" fill="#3B3B3B" width="0.31" height="0.311"/>
						<rect x="32.703" y="9.345" fill="#3B3B3B" width="0.31" height="0.311"/>
						<rect x="32.703" y="9.655" fill="#3B3B3B" width="0.31" height="0.31"/>
						<rect x="32.393" y="9.965" fill="#3B3B3B" width="0.31" height="0.311"/>
						<rect x="32.703" y="9.965" fill="#3B3B3B" width="0.31" height="0.311"/>
						<rect x="33.323" y="9.965" fill="#3B3B3B" width="0.31" height="0.311"/>
						<rect x="33.633" y="9.965" fill="#3B3B3B" width="0.31" height="0.311"/>
						<rect x="32.393" y="10.275" fill="#3B3B3B" width="0.31" height="0.31"/>
						<rect x="32.703" y="10.275" fill="#3B3B3B" width="0.31" height="0.31"/>
						<rect x="33.633" y="10.275" fill="#3B3B3B" width="0.31" height="0.31"/>
						<rect x="32.393" y="10.585" fill="#3B3B3B" width="0.31" height="0.31"/>
						<rect x="33.633" y="10.585" fill="#3B3B3B" width="0.31" height="0.31"/>
						<rect x="32.393" y="10.895" fill="#3B3B3B" width="0.31" height="0.311"/>
						<rect x="32.703" y="10.895" fill="#3B3B3B" width="0.31" height="0.311"/>
						<rect x="33.013" y="10.895" fill="#3B3B3B" width="0.31" height="0.311"/>
						<rect x="33.323" y="10.895" fill="#3B3B3B" width="0.31" height="0.311"/>
						<rect x="33.633" y="10.895" fill="#3B3B3B" width="0.31" height="0.311"/>
						<rect x="33.013" y="11.205" fill="#3B3B3B" width="0.31" height="0.31"/>
						<rect x="33.323" y="11.205" fill="#3B3B3B" width="0.31" height="0.31"/>
						<rect x="32.083" y="11.515" fill="#3B3B3B" width="0.31" height="0.311"/>
						<rect x="32.393" y="11.515" fill="#3B3B3B" width="0.31" height="0.311"/>
						<rect x="33.943" y="9.035" fill="#3B3B3B" width="0.31" height="0.31"/>
						<rect x="34.253" y="9.035" fill="#3B3B3B" width="0.31" height="0.31"/>
						<rect x="32.703" y="8.725" fill="#3B3B3B" width="0.31" height="0.31"/>
						<rect x="33.633" y="8.725" fill="#3B3B3B" width="0.31" height="0.31"/>
						<rect x="34.253" y="8.725" fill="#3B3B3B" width="0.31" height="0.31"/>
						<rect x="34.253" y="6.503" fill="#3B3B3B" width="0.31" height="0.31"/>
						<rect x="33.943" y="9.965" fill="#3B3B3B" width="0.31" height="0.311"/>
						<rect x="34.253" y="9.965" fill="#3B3B3B" width="0.31" height="0.311"/>
						<rect x="34.253" y="10.585" fill="#3B3B3B" width="0.31" height="0.31"/>
						<rect x="34.253" y="10.895" fill="#3B3B3B" width="0.31" height="0.311"/>
						<rect x="34.253" y="11.205" fill="#3B3B3B" width="0.31" height="0.31"/>
						<rect x="33.943" y="11.515" fill="#3B3B3B" width="0.31" height="0.311"/>
						<rect x="34.253" y="11.515" fill="#3B3B3B" width="0.31" height="0.311"/>
						<rect x="30.223" y="11.825" fill="#3B3B3B" width="0.31" height="0.31"/>
						<rect x="30.533" y="11.825" fill="#3B3B3B" width="0.31" height="0.31"/>
						<rect x="30.843" y="11.825" fill="#3B3B3B" width="0.31" height="0.31"/>
						<rect x="31.153" y="11.825" fill="#3B3B3B" width="0.31" height="0.31"/>
						<rect x="31.462" y="11.825" fill="#3B3B3B" width="0.31" height="0.31"/>
						<rect x="29.292" y="12.135" fill="#3B3B3B" width="0.31" height="0.311"/>
						<rect x="29.603" y="12.135" fill="#3B3B3B" width="0.31" height="0.311"/>
						<rect x="31.153" y="12.135" fill="#3B3B3B" width="0.31" height="0.311"/>
						<rect x="31.462" y="12.135" fill="#3B3B3B" width="0.31" height="0.311"/>
						<rect x="29.603" y="12.445" fill="#3B3B3B" width="0.31" height="0.31"/>
						<rect x="30.533" y="12.445" fill="#3B3B3B" width="0.31" height="0.31"/>
						<rect x="30.843" y="12.445" fill="#3B3B3B" width="0.31" height="0.31"/>
						<rect x="31.462" y="12.445" fill="#3B3B3B" width="0.31" height="0.31"/>
						<rect x="29.292" y="12.755" fill="#3B3B3B" width="0.31" height="0.311"/>
						<rect x="29.603" y="12.755" fill="#3B3B3B" width="0.31" height="0.311"/>
						<rect x="30.223" y="12.755" fill="#3B3B3B" width="0.31" height="0.311"/>
						<rect x="30.533" y="12.755" fill="#3B3B3B" width="0.31" height="0.311"/>
						<rect x="31.153" y="12.755" fill="#3B3B3B" width="0.31" height="0.311"/>
						<rect x="29.292" y="13.065" fill="#3B3B3B" width="0.31" height="0.31"/>
						<rect x="29.603" y="13.065" fill="#3B3B3B" width="0.31" height="0.31"/>
						<rect x="30.223" y="13.065" fill="#3B3B3B" width="0.31" height="0.31"/>
						<rect x="30.533" y="13.065" fill="#3B3B3B" width="0.31" height="0.31"/>
						<rect x="31.153" y="13.065" fill="#3B3B3B" width="0.31" height="0.31"/>
						<rect x="31.772" y="12.755" fill="#3B3B3B" width="0.31" height="0.311"/>
						<rect x="29.292" y="13.375" fill="#3B3B3B" width="0.31" height="0.311"/>
						<rect x="29.603" y="13.375" fill="#3B3B3B" width="0.31" height="0.311"/>
						<rect x="30.533" y="13.375" fill="#3B3B3B" width="0.31" height="0.311"/>
						<rect x="31.153" y="13.375" fill="#3B3B3B" width="0.31" height="0.311"/>
						<rect x="31.772" y="13.375" fill="#3B3B3B" width="0.31" height="0.311"/>
						<rect x="28.982" y="13.686" fill="#3B3B3B" width="0.31" height="0.31"/>
						<rect x="29.603" y="13.686" fill="#3B3B3B" width="0.31" height="0.31"/>
						<rect x="29.913" y="13.686" fill="#3B3B3B" width="0.31" height="0.31"/>
						<rect x="30.533" y="13.686" fill="#3B3B3B" width="0.31" height="0.31"/>
						<rect x="31.462" y="13.686" fill="#3B3B3B" width="0.31" height="0.31"/>
						<rect x="31.772" y="13.686" fill="#3B3B3B" width="0.31" height="0.31"/>
						<rect x="33.013" y="11.515" fill="#3B3B3B" width="0.31" height="0.311"/>
						<rect x="33.323" y="11.825" fill="#3B3B3B" width="0.31" height="0.31"/>
						<rect x="33.633" y="11.825" fill="#3B3B3B" width="0.31" height="0.31"/>
						<rect x="32.083" y="12.135" fill="#3B3B3B" width="0.31" height="0.311"/>
						<rect x="32.393" y="12.135" fill="#3B3B3B" width="0.31" height="0.311"/>
						<rect x="32.703" y="12.135" fill="#3B3B3B" width="0.31" height="0.311"/>
						<rect x="33.013" y="12.445" fill="#3B3B3B" width="0.31" height="0.31"/>
						<rect x="33.633" y="12.135" fill="#3B3B3B" width="0.31" height="0.311"/>
						<rect x="32.083" y="12.445" fill="#3B3B3B" width="0.31" height="0.31"/>
						<rect x="32.703" y="12.445" fill="#3B3B3B" width="0.31" height="0.31"/>
						<rect x="32.083" y="12.755" fill="#3B3B3B" width="0.31" height="0.311"/>
						<rect x="32.393" y="12.755" fill="#3B3B3B" width="0.31" height="0.311"/>
						<rect x="32.703" y="12.755" fill="#3B3B3B" width="0.31" height="0.311"/>
						<rect x="33.013" y="12.755" fill="#3B3B3B" width="0.31" height="0.311"/>
						<rect x="33.633" y="12.755" fill="#3B3B3B" width="0.31" height="0.311"/>
						<rect x="32.393" y="13.065" fill="#3B3B3B" width="0.31" height="0.31"/>
						<rect x="33.013" y="13.065" fill="#3B3B3B" width="0.31" height="0.31"/>
						<rect x="33.323" y="13.065" fill="#3B3B3B" width="0.31" height="0.31"/>
						<rect x="32.393" y="13.375" fill="#3B3B3B" width="0.31" height="0.311"/>
						<rect x="33.633" y="13.375" fill="#3B3B3B" width="0.31" height="0.311"/>
						<rect x="32.083" y="13.686" fill="#3B3B3B" width="0.31" height="0.31"/>
						<rect x="32.393" y="13.686" fill="#3B3B3B" width="0.31" height="0.31"/>
						<rect x="33.633" y="13.686" fill="#3B3B3B" width="0.31" height="0.31"/>
						<rect x="33.943" y="11.825" fill="#3B3B3B" width="0.31" height="0.31"/>
						<rect x="33.943" y="12.135" fill="#3B3B3B" width="0.31" height="0.311"/>
						<rect x="33.943" y="12.445" fill="#3B3B3B" width="0.31" height="0.31"/>
						<rect x="33.943" y="12.755" fill="#3B3B3B" width="0.31" height="0.311"/>
						<rect x="33.943" y="13.065" fill="#3B3B3B" width="0.31" height="0.31"/>
						<rect x="33.943" y="13.375" fill="#3B3B3B" width="0.31" height="0.311"/>
						<rect x="33.943" y="13.686" fill="#3B3B3B" width="0.31" height="0.31"/>
						<rect x="28.982" y="12.445" fill="#3B3B3B" width="0.31" height="0.31"/>
						<rect x="28.068" y="6.819" fill="#3B3B3B" width="0.31" height="0.31"/>
						<rect x="28.378" y="6.819" fill="#3B3B3B" width="0.31" height="0.31"/>
						<rect x="28.068" y="7.129" fill="#3B3B3B" width="0.31" height="0.311"/>
						<rect x="28.378" y="7.439" fill="#3B3B3B" width="0.31" height="0.31"/>
						<rect x="28.362" y="8.414" fill="#3B3B3B" width="0.31" height="0.311"/>
						<rect x="27.758" y="7.129" fill="#3B3B3B" width="0.31" height="0.311"/>
						<rect x="27.448" y="7.439" fill="#3B3B3B" width="0.31" height="0.31"/>
						<rect x="27.758" y="7.439" fill="#3B3B3B" width="0.31" height="0.31"/>
						<rect x="27.448" y="7.749" fill="#3B3B3B" width="0.31" height="0.311"/>
						<rect x="27.758" y="8.06" fill="#3B3B3B" width="0.31" height="0.31"/>
						<rect x="27.138" y="7.749" fill="#3B3B3B" width="0.31" height="0.311"/>
						<rect x="28.982" y="13.065" fill="#3B3B3B" width="0.31" height="0.31"/>
						<rect x="28.982" y="13.375" fill="#3B3B3B" width="0.31" height="0.311"/>
						<rect x="28.982" y="13.995" fill="#3B3B3B" width="0.31" height="0.31"/>
						<rect x="29.913" y="13.995" fill="#3B3B3B" width="0.31" height="0.31"/>
						<rect x="30.533" y="13.995" fill="#3B3B3B" width="0.31" height="0.31"/>
						<rect x="31.153" y="13.995" fill="#3B3B3B" width="0.31" height="0.31"/>
						<rect x="31.772" y="13.995" fill="#3B3B3B" width="0.31" height="0.31"/>
						<rect x="33.943" y="13.995" fill="#3B3B3B" width="0.31" height="0.31"/>
						<rect x="34.253" y="13.995" fill="#3B3B3B" width="0.31" height="0.31"/>
					</g>
				</g>
				<g>
					<path d="M30.688,22.333c-0.38,0-0.688-0.309-0.688-0.688s0.309-0.688,0.688-0.688c0.379,0,0.688,0.309,0.688,0.688
						S31.068,22.333,30.688,22.333z M30.688,21.03c-0.339,0-0.615,0.275-0.615,0.614s0.275,0.614,0.615,0.614
						c0.339,0,0.614-0.275,0.614-0.614S31.027,21.03,30.688,21.03z"/>
				</g>
			</g>
			<g>
				<g id="XMLID_1_">
					<path fill="#F7DDCB" d="M37.706,12.918c-0.083,0.079-0.167,0.159-0.25,0.237c-0.019,0.019-0.042,0.038-0.067,0.037
						c-0.027-0.001-0.048-0.024-0.065-0.046c-0.128-0.162-0.257-0.324-0.385-0.484c-0.218-0.272-0.438-0.549-0.571-0.872
						c-0.117-0.284-0.162-0.588-0.213-0.892c0.024,0.005,0.049,0.012,0.073,0.021c0.216,0.089,0.282,0.355,0.363,0.574
						C36.802,12.066,37.264,12.483,37.706,12.918z"/>
					<path fill="#F2B090" d="M40.745,22.97c-0.412-0.435-0.834-0.905-0.951-1.494c-0.081-0.407-0.004-0.825-0.001-1.241
						c0.008-1.231-0.623-2.375-0.81-3.593c-0.143-0.927-0.037-1.924-0.479-2.75c-0.198-0.368-0.494-0.676-0.798-0.974
						c-0.083,0.079-0.167,0.159-0.25,0.237c-0.019,0.019-0.042,0.038-0.068,0.037c-0.027-0.001-0.048-0.024-0.065-0.046
						c-0.128-0.162-0.257-0.324-0.385-0.484c-0.218-0.272-0.438-0.549-0.571-0.872c-0.117-0.284-0.162-0.588-0.213-0.892
						c-0.225-0.041-0.456,0.142-0.606,0.33c-0.031,0.039-0.061,0.078-0.089,0.119c-0.192,0.271-0.335,0.574-0.424,0.895
						c-0.136,0.48-0.15,0.995-0.03,1.48c0.009,0.037,0.019,0.073,0.03,0.109c0.09,0.311,0.235,0.604,0.424,0.866v7.426
						c0,0.847-0.688,1.536-1.535,1.536h-5.442c0.616,0.677,1.246,1.34,1.89,1.988c0.442,0.446,0.924,0.903,1.533,1.049
						c0.565,0.132,1.179-0.021,1.727,0.171c0.271,0.094,0.505,0.268,0.733,0.441c0.909,0.699,4.824,4.584,4.824,4.584h4.38v-6.078
						C43.568,25.815,41.305,23.559,40.745,22.97z"/>
					<path fill="#F2B090" d="M26.343,17.315c-0.112-0.106-0.245-0.186-0.4-0.219c0,0,0,0,0,0c-0.008,0.005-0.017,0.011-0.025,0.015
						c-0.347,0.202-0.802,0.264-1.15,0.219c-0.258,0.373-0.344,0.86-0.228,1.3c0.105,0.394,0.357,0.731,0.606,1.054
						c0.254,0.33,0.511,0.656,0.772,0.979V19.61H26c0.129-0.099,0.244-0.197,0.344-0.3c0.278-0.286,0.438-0.602,0.432-1.054
						C26.772,18.01,26.626,17.581,26.343,17.315z"/>
					<path fill="#F2B090" d="M26.343,15.492c-0.086-0.282-0.23-0.528-0.425-0.662c-0.032-0.023-0.066-0.042-0.101-0.058
						c-0.001,0-0.001,0-0.001,0c-0.393,0.185-1.082,0.166-1.441-0.03c-0.454,0.275-0.721,0.83-0.652,1.357
						c0.069,0.525,0.535,1.082,1.044,1.23c0.348,0.045,0.804-0.017,1.15-0.219c0.008-0.004,0.017-0.01,0.025-0.015c0,0,0,0,0,0
						c0.171-0.105,0.314-0.245,0.4-0.425c0.038-0.078,0.064-0.164,0.078-0.257C26.463,16.127,26.435,15.79,26.343,15.492z"/>
					<path fill="#F2B090" d="M26.226,13.247c-0.033-0.182-0.123-0.407-0.308-0.595c-0.021-0.02-0.042-0.04-0.065-0.061
						c-0.214-0.187-0.533-0.324-0.997-0.324c-0.542,0.061-1.019,0.503-1.121,1.038c-0.103,0.535,0.16,1.182,0.64,1.437
						c0.359,0.196,1.048,0.215,1.441,0.03c0,0,0,0,0.001,0c0.036-0.017,0.07-0.035,0.101-0.057c0.067-0.044,0.12-0.096,0.153-0.157
						c0.141-0.258,0.2-0.536,0.2-0.833C26.271,13.571,26.254,13.411,26.226,13.247z"/>
					<path fill="#F2B090" d="M26.628,11.064c-0.019-0.256-0.121-0.507-0.285-0.706c-0.115-0.139-0.259-0.25-0.425-0.322
						c-0.039-0.018-0.08-0.032-0.122-0.044c-0.573-0.14-1.223,0.188-1.451,0.732c-0.229,0.544,0.011,1.231,0.511,1.543
						c0.463,0,0.783,0.138,0.997,0.324c0.023-0.004,0.044-0.012,0.065-0.019c0.188-0.063,0.32-0.228,0.425-0.418
						c0.039-0.07,0.074-0.145,0.107-0.219C26.572,11.666,26.648,11.365,26.628,11.064z"/>
					<polygon fill="#F2B090" points="39.512,32.786 37.671,30.401 43.217,25.496 46.939,29.577 46.904,36.652 46.904,39.297 
						46.904,41.328 					"/>
				</g>
				<g opacity="0.5">
					<path fill="#FBBA9A" d="M34.989,23.958c0.829-0.402,1.165-1.332,1.21-1.646c0.055-0.375-0.118-0.738-0.213-1.104
						c-0.156-0.596-0.106-1.244,0.14-1.811c0.124-0.284,0.296-0.549,0.377-0.849c0.202-0.746-0.194-1.574,0.076-2.299
						c0.03-0.081,0.069-0.161,0.078-0.247c0.032-0.304-0.29-0.507-0.544-0.679c-0.25-0.169-0.471-0.38-0.655-0.62v7.421
						c0,0.847-0.688,1.536-1.535,1.536h-5.442c0.172,0.188,0.346,0.377,0.521,0.563c0.841,0.012,1.683,0.013,2.524,0.014
						C32.099,24.238,34.16,24.36,34.989,23.958z"/>
					<path fill="#FBBA9A" d="M25.943,17.097C25.943,17.097,25.943,17.097,25.943,17.097c-0.009,0.005-0.017,0.011-0.025,0.015
						c-0.048,0.028-0.099,0.053-0.15,0.075c-0.068,0.071-0.141,0.127-0.209,0.146c0.068-0.02,0.141-0.075,0.209-0.146
						c-0.321,0.142-0.701,0.183-1,0.144c-0.088,0.127-0.156,0.268-0.203,0.416c0.292-0.003,0.586-0.086,0.861-0.193
						c0.197-0.076,0.428-0.164,0.608-0.053c0.072,0.044,0.123,0.113,0.167,0.186c0.267,0.435,0.317,0.997,0.129,1.471
						c-0.042,0.105-0.095,0.207-0.15,0.307c0.057-0.05,0.111-0.101,0.162-0.152c0.278-0.286,0.438-0.602,0.432-1.054
						c-0.003-0.247-0.149-0.676-0.432-0.941C26.231,17.209,26.098,17.13,25.943,17.097z"/>
					<path fill="#FBBA9A" d="M25.036,15.229c0.086-0.021,0.169-0.021,0.25-0.01c0.044-0.002,0.089-0.002,0.133-0.002
						c0.149,0.004,0.307,0.021,0.427,0.11c0.1,0.073,0.162,0.188,0.207,0.303c0.141,0.363,0.138,0.779-0.009,1.139
						c-0.047,0.117-0.155,0.292-0.276,0.418c0.051-0.022,0.102-0.047,0.15-0.075c0.008-0.004,0.017-0.01,0.025-0.015c0,0,0,0,0,0
						c0.171-0.105,0.314-0.245,0.4-0.425c0.038-0.078,0.064-0.164,0.078-0.257c0.042-0.288,0.013-0.625-0.078-0.923
						c-0.086-0.282-0.23-0.528-0.425-0.662c-0.032-0.023-0.066-0.042-0.101-0.058c-0.001,0-0.001,0-0.001,0
						c-0.03,0.015-0.061,0.026-0.093,0.038c-0.009,0.014-0.019,0.028-0.028,0.042c0.01-0.014,0.019-0.028,0.028-0.042
						c-0.402,0.142-1.015,0.114-1.348-0.068c-0.124,0.075-0.232,0.171-0.325,0.281c0.149,0.113,0.341,0.177,0.531,0.198
						C24.732,15.239,24.884,15.235,25.036,15.229z"/>
					<path fill="#FBBA9A" d="M25.857,13.041c0.092,0.123,0.135,0.276,0.158,0.43c0.071,0.462-0.037,0.948-0.292,1.34
						c0.032-0.012,0.063-0.023,0.093-0.038c0,0,0,0,0.001,0c0.036-0.017,0.07-0.035,0.101-0.057c0.067-0.044,0.12-0.096,0.153-0.157
						c0.141-0.258,0.2-0.536,0.2-0.833c0-0.154-0.016-0.314-0.045-0.479c-0.033-0.182-0.123-0.407-0.308-0.595
						c-0.021-0.02-0.042-0.04-0.065-0.061c-0.04-0.035-0.085-0.068-0.133-0.099c-0.024,0.026-0.05,0.054-0.076,0.079
						c0.026-0.025,0.051-0.053,0.076-0.079c-0.207-0.134-0.487-0.226-0.863-0.226c-0.129,0.015-0.254,0.052-0.372,0.105
						c0.402,0.126,0.815,0.227,1.157,0.466C25.722,12.896,25.799,12.961,25.857,13.041z"/>
					<path fill="#FBBA9A" d="M25.719,12.493c0.048,0.03,0.093,0.063,0.133,0.099c0.023-0.004,0.044-0.012,0.065-0.019
						c0.188-0.063,0.32-0.228,0.425-0.418c0.039-0.07,0.074-0.145,0.107-0.219c0.122-0.271,0.198-0.571,0.178-0.872
						c-0.019-0.256-0.121-0.507-0.285-0.706c-0.115-0.139-0.259-0.25-0.425-0.322c-0.039-0.018-0.08-0.032-0.122-0.044
						c-0.009-0.003-0.02-0.004-0.029-0.006c0.281,0.338,0.443,0.772,0.446,1.213C26.216,11.671,26.035,12.142,25.719,12.493z"/>
				</g>
				<path opacity="0.5" fill="#FBBA9A" d="M26,19.61c-0.294,0-0.266-0.039-0.398-0.069c-0.067,0.092-0.071,0.219-0.038,0.328
					c0.033,0.109,0.1,0.204,0.166,0.298c0.063,0.09,0.126,0.18,0.189,0.27V19.61H26z"/>
			</g>
			<path opacity="0.5" fill="#FBBA9A" d="M46.904,30.635c-0.031,0.736-6.828-7.183-7.017-7.894c-0.089-0.334-0.442-1.44-0.438-1.785
				c0.017-1.366-0.155-1.642-0.138-3.006c0.233,0.753,0.486,1.501,0.481,2.284c-0.003,0.416-0.079,0.834,0.001,1.241
				c0.117,0.589,0.539,1.06,0.951,1.494c0.56,0.589,4.503,4.927,6.194,6.607C46.939,29.577,46.939,29.797,46.904,30.635z"/>
			<path fill="#795020" d="M44.762,26.278c0,0-3.446,5.267-4.23,6.02c-0.785,0.753-1.863,1.41-1.863,1.41s8.153,7.993,8.372,7.798
				c4.016-3.586,3.217-10.495,3.217-10.495L44.762,26.278z"/>
		</g>
		<g>
			<path d="M16.739,43.433l-0.224,0.57c0,0,1.321,0.234,1.674,0.168c0.353-0.068,0.41-0.738,0.41-0.738H16.739z"/>
			<path fill="#3C2415" d="M16.673,43.853c-0.156-0.121-0.14,0.126-0.746,0.254c-0.606,0.128-0.709,0.056-0.987,0.077
				c-0.278,0.021-0.519,0.53-0.359,0.668c0.16,0.137,0.781,0.2,1.096,0.177c0.316-0.024,0.691-0.054,0.691-0.054l0.612-0.048
				l0.127,0.196l0.864,0.083c0,0,0.313-0.063,0.438-0.37c0.126-0.309,0.11-0.75,0.11-0.75l-0.115-0.131
				C18.404,43.955,17.101,44.184,16.673,43.853z"/>
			<path d="M20.46,43.769l1.433,0.04v0.705c0,0-1.191,0.036-1.433,0c-0.242-0.038-0.242-0.038-0.242-0.038L20.46,43.769z"/>
			<path fill="#3C2415" d="M20.286,44.355c-0.165-0.106-0.129,0.138-0.723,0.313c-0.594,0.178-0.609,0.09-0.885,0.131
				c-0.275,0.045-0.474,0.572-0.304,0.696c0.17,0.124,0.794,0.138,1.107,0.089c0.312-0.049,0.591-0.085,0.591-0.085l0.606-0.095
				l0.143,0.184l0.868,0.014c0,0,0.307-0.087,0.407-0.403c0.101-0.318,0.05-0.757,0.05-0.757l-0.126-0.122
				C22.019,44.319,20.739,44.652,20.286,44.355z"/>
			<path fill="#434540" d="M16.698,30.44c0,0-0.241,1.526-0.297,2.064c-0.056,0.54-0.111,1.805-0.111,2.065
				c0,0.262,0.013,0.206-0.081,0.632c-0.093,0.428,0.086,2.159,0.31,2.458c0.224,0.297,0.254,0.966,0.348,1.246
				c0.093,0.279,0,2.156,0,2.156s-0.112,0.708-0.093,1.062c0.018,0.354-0.204,1.08-0.204,1.08l-0.091,0.391
				c0,0,0.463,0.128,0.742,0.167c0.279,0.038,1.377-0.074,1.526-0.131c0.147-0.056,0.353-0.96,0.409-1.488
				c0.055-0.528,0-2.325,0-2.771c0-0.447-0.187-1.805-0.187-1.805s-0.26-3.386-0.204-3.722c0.056-0.333,0.223-1.245,0.223-1.245
				l0.41-1.695c0,0-1.823-0.129-2.214-0.295C16.791,30.44,16.698,30.44,16.698,30.44z"/>
			<path fill="#4D4C4C" d="M17.387,30.832c0,0-0.111,1.915-0.092,2.362c0.019,0.446,0.316,1.245,0.428,1.45s1.004,1.471,1.19,1.974
				c0.187,0.501,0.144,0.659,0.297,1.004c0.095,0.213,0.224,0.298,0.299,0.503c0.074,0.203,0.354,1.34,0.354,1.34l0.093,0.297
				c0,0,0,0.483,0,0.744s0.112,0.427,0.13,0.576c0.019,0.148,0.093,1.506,0.093,1.506v1.396c0,0,0.822,0.188,1.063,0.188
				c0.24,0,0.853,0,0.853,0s0.187-1.724,0.168-2.14c-0.019-0.417-0.075-0.987-0.075-1.282c0-0.299-0.391-2.792-0.41-3.248
				c-0.019-0.456-0.301-1.305-0.285-1.49c0.017-0.187-0.305-1.012-0.251-1.198c0.053-0.186,0.147-0.912,0.109-1.246
				c-0.037-0.336,0.038-0.596,0.373-1.712c0.334-1.116,0.156-2.051,0.156-2.051s-2.017,0.898-2.482,0.916
				c-0.465,0.019-1.938-0.037-1.938-0.037L17.387,30.832z"/>
			<path d="M17.959,32.854l1.612-1.217c0,0,0.52,0.45,0.659,0.646c0.137,0.193,0.06,0.268-0.083,0.475
				c-0.142,0.21-1.36,1.314-1.36,1.314s-0.58-0.634-0.663-0.766C18.041,33.177,17.846,32.923,17.959,32.854z"/>
			<g>
				<path fill="#414042" d="M10.63,20.604c0.001,0.263,0.05,0.476-0.268,0.476l-2.083,0.007c-0.318,0.001-0.26-0.214-0.26-0.478l0,0
					c0-0.261-0.061-0.475,0.258-0.475l2.083-0.007C10.678,20.127,10.629,20.342,10.63,20.604L10.63,20.604z"/>
				<path fill="#BE1E2D" d="M10.63,20.492c0,0.252,0.049,0.457-0.269,0.457l-2.082,0.005c-0.318,0-0.26-0.202-0.261-0.455l0,0
					c0-0.251-0.06-0.454,0.258-0.457l2.083-0.004C10.678,20.038,10.629,20.242,10.63,20.492L10.63,20.492z"/>
				<path fill="#414042" d="M8.713,20.724c0.001,0.064-0.051,0.115-0.115,0.115L8.28,20.842c-0.064,0-0.116-0.053-0.116-0.116l0,0
					c0-0.064,0.051-0.117,0.115-0.117l0.319-0.001C8.662,20.607,8.713,20.659,8.713,20.724L8.713,20.724z"/>
				<circle fill="#FFFFFF" cx="8.379" cy="20.724" r="0.037"/>
				<path fill="#F9CC9B" d="M11.561,21.34c0,0-0.137,0.191-0.304,0.179c-0.166-0.013-0.886-0.29-0.971-0.363
					c-0.085-0.073-0.549,0.088-0.549,0.088s-0.138,0.186-0.2,0.198c-0.063,0.012-0.209-0.085-0.12-0.204
					c0.088-0.122,0.148-0.356,0.3-0.424c0.152-0.066,0.056-0.272-0.133-0.371c-0.19-0.096-0.509-0.123-0.672-0.12
					c-0.164,0.006-0.389,0.175-0.462,0.002c-0.073-0.171,0.28-0.199,0.439-0.246c0.16-0.048,0.348,0.017,0.38,0.017
					c0.033-0.002-0.186-0.036-0.25-0.034c-0.065,0.001-0.021-0.2,0.067-0.23c0.088-0.033,0.05-0.106,0.114-0.141
					c0.065-0.034,0.419-0.152,0.567-0.051c0.146,0.101,0.345,0.194,0.49,0.262c0.147,0.07,0.299,0.093,0.476,0.127
					c0.178,0.034,0.424,0.165,0.538,0.268c0.114,0.102,0.347,0.106,0.45,0.267c0.103,0.161,0.165,0.491,0.056,0.675
					C11.667,21.418,11.561,21.34,11.561,21.34z"/>
				<path fill="#795020" d="M17.135,20.034c0,0-0.756,0.48-0.927,0.737c-0.17,0.262-0.578,0.554-0.974,0.592
					c-0.396,0.037-1.02-0.193-1.14-0.159c-0.119,0.036-0.749-0.211-0.954-0.23c-0.204-0.017-0.384-0.188-0.507-0.237
					c-0.123-0.047-0.442-0.107-0.442-0.107s-0.192-0.077-0.428-0.195c-0.263-0.13-0.333-0.055-0.333-0.055s0.198,0.241,0.178,0.368
					s-0.022,0.339-0.066,0.473c-0.043,0.134-0.284,0.299-0.284,0.299l0.585,0.204c0,0,0.13,0.214,0.27,0.342
					c0.139,0.13,0.479,0.319,0.838,0.45c0.596,0.216,0.658,0.325,1.024,0.352c0.366,0.026,0.832,0.156,1.182,0.175
					c0.349,0.019,0.894-0.046,0.894-0.046l0.867-0.447l0.255-0.146l-0.221-2.079"/>
				<path fill="#795020" d="M11.269,20.219c0,0,0.1,0.523,0.001,0.694c-0.1,0.169-0.276,0.571-0.276,0.571l0.319,0.062l0.343-0.407
					c0,0,0.091-0.608,0.04-0.731C11.644,20.285,11.269,20.219,11.269,20.219z"/>
				<path fill="#4B2F15" d="M11.99,21.8c0,0,0.066,0.188,0.316,0.112c0.249-0.081,0.416-0.271,0.453-0.391
					c0.037-0.117,0.1,0.277-0.053,0.328C12.553,21.901,12.037,22.26,11.99,21.8z"/>
			</g>
			<g>
				<path fill="#F9CC9B" d="M19.657,18.712c0,0-0.578-1.506-0.509-1.689c0.067-0.187,0.198-0.682,0.281-0.896
					c0.084-0.214,0.045-0.752-0.259-1.051c-0.305-0.3-1.077-0.65-1.637-0.521c-0.561,0.127-1.192,0.737-1.263,0.905
					c-0.07,0.168-0.128,0.644-0.155,0.732c-0.027,0.093-0.064,0.234-0.042,0.305c0.023,0.068,0.127,0.202,0.099,0.267
					c-0.027,0.065-0.139,0.411-0.139,0.411s-0.071,0.23,0.019,0.323c0.092,0.095,0.163,0.034,0.163,0.034s0.041-0.03,0.08,0.027
					c0.038,0.056,0.028,0.109,0.103,0.184c0.075,0.076,0.08,0.028,0.125,0.014c0.045-0.011,0.182-0.023,0.178,0.005
					c-0.003,0.031-0.014,0.056-0.106,0.112c-0.091,0.059-0.105,0.113-0.08,0.17c0.025,0.057,0.089,0.079,0.085,0.176
					c-0.006,0.093-0.083,0.124,0.013,0.285c0.096,0.162,0.359,0.19,0.533,0.224c0.173,0.033,0.33-0.083,0.352-0.076
					c0.023,0.007,0.168,0.218,0.168,0.218l0.076,0.1L19.657,18.712z"/>
				<path fill="#F1B279" d="M18.151,16.149c0,0,0.022-0.179,0.095-0.188c0.072-0.01,0.257,0.043,0.271,0.219
					c0.014,0.174-0.027,0.252-0.061,0.342c-0.034,0.09-0.15,0.228-0.178,0.224c-0.029-0.002-0.093-0.104-0.113-0.106
					s-0.139,0.025-0.158,0.03c-0.018,0.002,0-0.067,0.005-0.126c0.004-0.063-0.097-0.313,0.031-0.235
					c0.129,0.078,0.095,0.144,0.125,0.185c0.03,0.043,0.046,0.118,0.11,0.058c0.062-0.063,0.135-0.116,0.136-0.242
					c0-0.125-0.036-0.201-0.057-0.228c-0.023-0.028-0.108-0.111-0.116-0.008c-0.007,0.103-0.021,0.213-0.068,0.175
					C18.126,16.209,18.151,16.149,18.151,16.149z"/>
				<path d="M16.773,16.31c0,0-0.309-0.043-0.359-0.026c-0.051,0.014-0.164,0.123-0.179,0.132s-0.108,0.061-0.108,0.061
					s-0.03,0.097,0.059,0.106c0.089,0.006,0.178,0.003,0.222-0.066c0.045-0.072,0.061-0.1,0.1-0.115
					C16.543,16.387,16.773,16.31,16.773,16.31z"/>
				<path d="M16.096,16.543c0,0-0.036,0.007-0.058,0.016c-0.021,0.01,0.025,0.104,0.059,0.105c0.034,0,0.06-0.015,0.06-0.015
					S16.097,16.568,16.096,16.543z"/>
				<path d="M16.693,16.518c0,0-0.151,0.077-0.203,0.113c-0.051,0.039-0.065,0.111-0.065,0.111s0.065,0.002,0.117-0.037
					c0.051-0.037,0.051-0.037,0.051-0.037s-0.087,0.067-0.071,0.1c0.017,0.029,0.039,0.076,0.109-0.021
					c0.072-0.094,0.124-0.269,0.124-0.269L16.693,16.518z"/>
				<path fill="#FFFFFF" d="M16.486,17.776l0.066,0.056l0.143-0.08C16.695,17.752,16.599,17.717,16.486,17.776z"/>
				<path fill="#FFFFFF" d="M16.556,17.83l0.022,0.055c0,0,0.051-0.023,0.082-0.058c0.031-0.034,0.041-0.065,0.041-0.065
					l-0.005-0.01L16.556,17.83z"/>
				<path d="M19.268,16.759c0,0,0.159-0.463,0.206-0.657c0.048-0.191,0.124-0.404,0.063-0.563c-0.063-0.163-0.173-0.326-0.236-0.418
					c-0.061-0.093-0.162-0.221-0.162-0.221l-0.152-0.16c0,0-0.087-0.111-0.149-0.114c-0.061-0.004-0.092-0.13-0.092-0.13
					l-0.159-0.075c0,0-0.087-0.039-0.178-0.096c-0.091-0.059-0.242-0.008-0.242-0.008s-0.183-0.065-0.209-0.08
					c-0.027-0.013-0.265,0.015-0.265,0.015l-0.106-0.007c0,0-0.038,0.026-0.15,0.07c-0.112,0.043-0.244,0.137-0.244,0.137L17,14.49
					l-0.164,0.092c0,0-0.275,0.099-0.375,0.161c-0.099,0.067-0.23,0.181-0.23,0.181s-0.189,0.097-0.212,0.126
					c-0.02,0.034-0.172,0.248-0.195,0.26c-0.022,0.012-0.02,0.225-0.02,0.225l0.125-0.124c0,0,0.032,0.021,0.017,0.049
					c-0.013,0.029,0.127-0.174,0.095-0.127c-0.031,0.047-0.047,0.193-0.047,0.193l0.021,0.264l0.131-0.113l0.09-0.082
					c0,0,0.188-0.065,0.239-0.043c0.05,0.021,0.096-0.055,0.261-0.108c0.165-0.054,0.39-0.102,0.428-0.102
					c0.038-0.003,0.129,0.122,0.163,0.22c0.036,0.1,0.078,0.312,0.088,0.346c0.009,0.034,0.13,0.475,0.151,0.511
					c0.021,0.039,0.088,0.158,0.079,0.192c-0.01,0.034,0.044,0.2,0.044,0.2l0.117-0.017c0,0,0.096-0.3,0.128-0.433
					c0.029-0.136,0.113-0.368,0.113-0.368s0.107-0.071,0.21-0.129c0.104-0.058,0.296,0.059,0.334,0.283
					c0.039,0.224-0.07,0.481-0.108,0.553c-0.039,0.068,0.046,0.219,0.032,0.247c-0.013,0.025-0.035,0.283-0.018,0.313
					c0.017,0.03,0.041,0.213,0.071,0.283c0.03,0.072,0.147,0.26,0.147,0.26l0.624,0.03c0,0-0.258-0.676-0.166-0.874
					C19.268,16.759,19.268,16.759,19.268,16.759z"/>
			</g>
			<path fill="#795020" d="M18.616,20.62c0,0-0.472,0.989-0.526,1.521c-0.056,0.532,0.203,2.325,0.236,2.771
				c0.035,0.446,0.271,2.066,0.271,2.066s-0.026,1.905-0.051,2.283c-0.026,0.377-0.174,0.773-0.174,0.773s-0.16,0.497-0.128,0.742
				c0.032,0.246-0.017,0.828-0.017,0.828l0.042,0.319c0,0,0.142,0.506,0.845,0.34c0.703-0.167,0.703-0.167,0.703-0.167
				s-0.019-0.523-0.028-0.598c-0.01-0.073,0.169-0.621,0.169-0.621s0.232-0.906,0.384-1.277c0.151-0.37,0.574-1.525,0.632-1.858
				c0.056-0.333-0.101-0.956-0.104-1.56c-0.004-0.604-0.205-1.752-0.112-2.19c0.093-0.438,0.201-0.751,0.249-1.157
				c0.047-0.407,0.149-0.771,0.093-1.015c-0.058-0.243-0.63-1.118-1.196-1.269C19.337,20.402,19.095,20.458,18.616,20.62z"/>
			<path fill="#795020" d="M16.848,20.466c0,0-0.129,0.563-0.149,0.69c-0.021,0.129-0.053,1.899-0.041,2.086
				c0.012,0.186,0.053,1.356,0.013,1.625c-0.041,0.267-0.168,1.498-0.184,1.662c-0.016,0.165,0.101,1.151,0.075,1.43
				c-0.026,0.277,0.174,0.782,0.137,0.976c-0.038,0.191-0.044,0.627,0.112,0.869c0.157,0.242,0.045,0.117,0.006,0.298
				c-0.039,0.18-0.185,0.499-0.185,0.499s0.498,0.46,1.004,0.406c0.506-0.054,2.132-0.24,2.606-0.341
				c0.476-0.1,0.995-0.344,1.112-0.395c0.118-0.055,0.551-0.286,0.551-0.286s-0.09-0.587-0.091-0.688
				c0-0.101,0.212-0.204,0.14-0.469c-0.073-0.266-0.333-1.208-0.413-1.621c-0.079-0.416-0.075-0.954-0.094-1.49
				c-0.021-0.535,0.054-1.683-0.068-2.619c-0.123-0.934-0.292-1.948-0.651-2.678c-0.357-0.729-0.389-0.775-0.625-0.955
				c-0.236-0.183-0.306-0.523-0.352-0.682c-0.045-0.157-0.04-0.407-0.04-0.407s-0.968,0.064-1.341,0.176
				c-0.373,0.111-0.676,0.476-0.713,0.568c-0.038,0.093-0.22,0.227-0.22,0.227s-0.166,0.285-0.264,0.431
				C17.057,19.949,16.848,20.466,16.848,20.466z"/>
			<path fill="#4B2F15" d="M17.154,20.049c0,0-0.252,1.677-0.354,2.094c-0.1,0.414,0.021,0.746,0.015,0.979
				c-0.006,0.234-0.117,0.906-0.117,0.906s0.194-1.045,0.294-1.509c0.102-0.465,0.253-1.843,0.288-2.108
				c0.035-0.267-0.087-0.464,0.144-0.661c0.231-0.198,0.224-0.223,0.224-0.223S17.241,19.893,17.154,20.049"/>
			<path fill="#4B2F15" d="M17.096,19.907c0,0,0.527-0.535,0.986-0.63c0.459-0.093,1.314-0.13,1.314-0.13h0.474l-0.159-0.771
				c0,0-1.515,0.096-1.786,0.324C17.653,18.93,17.096,19.907,17.096,19.907z"/>
			<path fill="#4B2F15" d="M18.589,20.844c0,0-0.347,0.646-0.398,1.403c-0.051,0.758,0.033,1.403,0.09,1.976
				c0.057,0.575,0.141,1.221,0.191,1.459c0.05,0.238,0.183,0.97,0.166,1.986c-0.018,1.015-0.111,2.303-0.111,2.303
				s-0.087,0.199,0.182,0.238c0.268,0.039,0.566,0.076,0.489,0.183c-0.077,0.103-0.317,0.134-0.533,0.067
				c-0.215-0.065-0.314-0.391-0.314-0.391s0.068-1.209,0.11-1.459c0.043-0.249,0.042-1.545-0.115-2.593
				c-0.156-1.049-0.373-2.428-0.375-3.159c-0.002-0.731,0.22-1.755,0.335-1.883C18.42,20.847,18.589,20.844,18.589,20.844z"/>
			<path fill="#4B2F15" d="M18.847,30.697c0,0,0.565,0.021,0.771,0.162c0.206,0.143,0.344,0.331-0.082,0.236
				c-0.426-0.094-0.693,0.011-0.822-0.11C18.586,30.863,18.847,30.697,18.847,30.697z"/>
			<path fill="#4B2F15" d="M20.022,24.128c0,0,0.102,0.557,0.285,0.96c0.184,0.399,0.221,1.075,0.336,1.115
				c0.115,0.043,0.088-0.63-0.176-1.348c-0.265-0.714-0.146-0.786-0.344-0.873S20.022,24.128,20.022,24.128z"/>
			<path fill="#4B2F15" d="M20.045,30.491c0,0,0.319-1.129,0.435-1.646c0.116-0.517,0.592-1.402,0.511-1.643
				c-0.082-0.239-0.183-0.288-0.168-0.441c0.016-0.151,0.013-0.438,0.031-0.641c0.019-0.203-0.113-0.624-0.113-0.873
				c0-0.25-0.007-0.964,0.031-1.156s0.182-0.423,0.082-0.711c-0.101-0.287-0.102-0.4-0.102-0.4s0.211,0.374,0.197,0.164
				c-0.016-0.212,0.021-0.405,0.068-0.623c0.047-0.219,0.101-0.663,0.101-0.663s0.078,1.254-0.063,1.621
				c-0.139,0.369-0.095,0.614-0.168,1.099c-0.074,0.484-0.106,0.814,0,1.239c0.104,0.423,0.066,0.704,0.066,0.704
				s-0.097,0.313,0.023,0.458c0.119,0.147,0.145,0.782,0.021,1.1C20.872,28.395,20.045,30.491,20.045,30.491z"/>
			<g>
				<path fill="#F9CC9B" d="M18.248,31.765c0,0-0.124,0.193-0.16,0.785c-0.034,0.591-0.123,1.021,0.055,1.18
					c0.084,0.074,0.281,0.039,0.281,0.039s0.174,0.472,0.464,0.397c0.29-0.076,0.303-0.191,0.261-0.223
					c-0.042-0.033-0.2-0.031-0.232-0.13c-0.032-0.098-0.016-0.412-0.016-0.412s-0.003,0.264,0.061,0.32
					c0.063,0.058,0.072,0.065,0.189,0.136c0.118,0.069,0.252,0.014,0.368-0.029c0.117-0.044,0.144-0.121,0.155-0.181
					c0.011-0.057-0.19-0.012-0.265-0.077c-0.074-0.065-0.092-0.354-0.092-0.354s0.096-0.05,0.181,0.099
					c0.085,0.149,0.092,0.205,0.204,0.199c0.112-0.007,0.292-0.142,0.331-0.203c0.039-0.061,0.044-0.231,0.044-0.231
					s-0.042-0.107-0.071-0.112c-0.028-0.006-0.056,0.215-0.148,0.161c-0.091-0.055-0.14-0.166-0.133-0.313
					c0.007-0.149,0.052-0.53,0.052-0.53l0.005-0.18L18.248,31.765z"/>
				<path fill="#F1B279" d="M18.343,33.091c0,0-0.04,0.56,0.018,0.636c0.057,0.077,0.171,0.214,0.171,0.214s-0.08-0.347-0.067-0.52
					C18.477,33.251,18.418,33.09,18.343,33.091z"/>
			</g>
		</g>
	</g>
</g>
<g id="Layer_15">
</g>
<g id="Layer_26">
</g>
<g id="Layer_19">
</g>
<g id="Layer_23">
</g>
<g id="Layer_24">
</g>
<g id="Layer_17">
</g>
<g id="Layer_4">
</g>
<g id="Layer_12">
</g>
<g id="Layer_25">
</g>
<g id="Layer_13">
</g>
<g id="Layer_21">
</g>
<g id="Layer_16">
</g>
<g id="Layer_20">
</g>
<g id="Layer_22">
</g>
</svg>
